<?xml version="1.0" encoding="UTF-8"?>
<svg id="Layer_2" data-name="Layer 2" xmlns="http://www.w3.org/2000/svg" viewBox="0 0 92.83 120.18">
  <defs>
    <style>
      .cls-1 {
        fill: #aba8a6;
      }

      .cls-1, .cls-2, .cls-3, .cls-4, .cls-5 {
        stroke-miterlimit: 10;
      }

      .cls-1, .cls-2, .cls-3, .cls-4, .cls-5, .cls-6, .cls-7 {
        stroke: #878685;
        stroke-width: 2px;
      }

      .cls-2, .cls-7 {
        fill: #bbb4ae;
      }

      .cls-3, .cls-6, .cls-8 {
        fill: #cccac8;
      }

      .cls-4 {
        stroke-linecap: round;
      }

      .cls-4, .cls-5 {
        fill: none;
      }

      .cls-6, .cls-7 {
        stroke-linejoin: round;
      }

      .cls-8, .cls-9 {
        stroke-width: 0px;
      }

      .cls-9 {
        fill: #a49d93;
      }
    </style>
  </defs>
  <g id="backpack">
    <path class="cls-2" d="m43.21,4.01l-9.65,2.33C6.77,1.73,1.14,26.91,1.14,26.91c-1.4,14.37,8.18,23.16,3.79,37.73-4.39,14.57,3.19,26.35,3.19,26.35-.6,10.78,7.39,16.77,7.39,16.77,0,0,18.76,11.98,22.76,11.4,3.99-.57,9.78-2.62,9.78-2.62,5.19,5.39,21.56.8,21.56.8l13.52-5.45c5.52-2.23,9.01-7.73,8.68-13.67l-1.32-23.39c-.19-3.39-2.4-6.32-5.6-7.45l-.7-13.32c0-6.39-4.79-32.34-11.98-39.13-5.13-4.85-15.95-8.68-21.72-10.47-2.36-.73-4.85-.88-7.28-.45m-30.1,31.45s-7.88-13.49,8.59-21.31c0,0-8.29,13.32-8.59,21.31Z"/>
    <path id="shade" class="cls-9" d="m9.01,80.35s4.12,24.62,22.79,31.98c0,0,.7,3.54,3.57,6.25l-19.86-10.82s-10.52-5.42-6.51-27.41Z"/>
    <path class="cls-9" d="m46.24,112.56s-13.67,1.64-15.67-5.31c0,0,1.3,9.7,4.8,11.33s12.68-2.04,12.68-2.04l-1.81-3.98Z"/>
    <path class="cls-9" d="m10.46,27.19s-3.46,3.54-3.97,26.07c0,0-17.51-36.09,9.42-41.33l4.84,1.23s-11.17,9.89-10.29,14.02Z"/>
    <path class="cls-9" d="m29.13,70.36s-3.82,1.09-9.34-.46l.58,3.79s7.59,1.96,8.76.64v-3.98Z"/>
    <path class="cls-9" d="m90.73,81.45s5.78,29.61-23.71,36.51l19.08-7.72s7.51-5.52,5.73-13.55l-1.1-15.24Z"/>
    <path class="cls-9" d="m67.02,69.9s23,.56,15.69-27.17l2.18,24.64s-13.43,1.15-17.87,2.53Z"/>
    <polygon class="cls-9" points="11.23 62.69 15.91 66.77 15.91 70.29 10.46 65.05 11.23 62.69"/>
    <path id="front_zip" class="cls-8" d="m88.48,69.83c-3.57-3.33-13.95-2.42-13.95-2.42l-22.53,6.48c-5.88,1.69-9.93,7.07-9.93,13.19v15.81l3.42,1.92s.93-18.79,2.35-21.33,4.65-8.23,18.53-9.71l18.62-3.77,3.5-.17Z"/>
    <path id="front_zip-2" data-name="front_zip" class="cls-4" d="m88.48,69.83c-3.57-3.33-13.08-1.71-13.08-1.71l-23.41,5.77c-5.88,1.69-9.93,7.07-9.93,13.19v17.03"/>
    <path id="patch" class="cls-1" d="m55.29,35.46c2.61-.99,11.98-2.7,14.16-.78.75.66,1.63,1.13,1.76,2.12.36,2.58.61,7.7-2.43,10.21-4.17,3.45-16.23,4.02-16.66,0-.29-2.71-1.06-7.93.5-9.86.88-1.09,1.4-1.21,2.68-1.7Z"/>
    <path id="bottle_holder" class="cls-5" d="m29.13,74.34c.07.74-10.47,1.75-18.67-9.29"/>
    <g id="zipper">
      <circle class="cls-3" cx="44.24" cy="105.07" r="2.18"/>
      <path class="cls-6" d="m37.44,109.25l3.92,4.11s1.03-4.9,3.73-6.46c0,0-2.24,1.47-3.03-1.82l-4.62,4.18Z"/>
    </g>
    <path id="main_pouch" class="cls-5" d="m8.13,90.99s4.98-61.86,6.34-63.8c.8-1.15,2.72-15.46,24.12-22.08,0,0,11.65-6.01,31.3,7.95,0,0-4.56-3.72-23.48,4.87s-17.24,29.94-17.24,29.94c0,0-.04,55.87,1.88,62.39,1.78,6.04.82,6.06,7.22,8.89"/>
    <path id="main_zip" class="cls-3" d="m20.4,72.76l1.1-32.05s2.85-17.95,15.44-24.54c0,0,15.8-10.96,25.83-7.07l-7.4-3.26s-16.86,2.22-25.09,9.53-11.29,19.19-11.29,19.19c0,0-3.09,8.99-3.09,35.73l4.49,2.47Z"/>
    <path id="front_strap" class="cls-4" d="m21.7,14.15s-10.7-4.86-16.02,2.9"/>
    <path id="other_strap" class="cls-7" d="m35.42,6.2s0-3.36,4.51-4.42c1.35-.32,7.22-2.68,11.81,2.79,0,0-5.21-1.11-16.33,1.64Z"/>
    <path id="main_pouch-2" data-name="main_pouch" class="cls-5" d="m8.13,90.99s4.98-61.86,6.34-63.8"/>
    <path id="lineart" class="cls-5" d="m43.21,4.01l-9.65,2.33C6.77,1.73,1.14,26.91,1.14,26.91c-1.4,14.37,8.18,23.16,3.79,37.73-4.39,14.57,3.19,26.35,3.19,26.35-.6,10.78,7.39,16.77,7.39,16.77,0,0,18.76,11.98,22.76,11.4,3.99-.57,9.78-2.62,9.78-2.62,5.19,5.39,21.56.8,21.56.8l13.52-5.45c5.52-2.23,9.01-7.73,8.68-13.67l-1.32-23.39c-.19-3.39-2.4-6.32-5.6-7.45l-.7-13.32c0-6.39-4.79-32.34-11.98-39.13-5.13-4.85-15.95-8.68-21.72-10.47-2.36-.73-4.85-.88-7.28-.45"/>
  </g>
</svg>