<?xml version="1.0" encoding="UTF-8"?>
<svg id="Layer_2" data-name="Layer 2" xmlns="http://www.w3.org/2000/svg" xmlns:xlink="http://www.w3.org/1999/xlink" viewBox="0 0 518.87 491.29">
  <defs>
    <style>
      .cls-1, .cls-2, .cls-3, .cls-4, .cls-5 {
        stroke-linecap: round;
      }

      .cls-1, .cls-3, .cls-5, .cls-6, .cls-7, .cls-8, .cls-9 {
        stroke-linejoin: round;
      }

      .cls-1, .cls-3, .cls-5, .cls-9 {
        stroke: #837d74;
      }

      .cls-1, .cls-10 {
        fill: #837d74;
      }

      .cls-11 {
        fill: #76421f;
        stroke: #633518;
        stroke-width: 5px;
      }

      .cls-11, .cls-2, .cls-12, .cls-13, .cls-4, .cls-14, .cls-15 {
        stroke-miterlimit: 10;
      }

      .cls-16 {
        clip-path: url(#clippath);
      }

      .cls-17, .cls-4, .cls-5, .cls-14, .cls-15, .cls-9 {
        fill: none;
      }

      .cls-17, .cls-18, .cls-10, .cls-19, .cls-20, .cls-21, .cls-22, .cls-23, .cls-24, .cls-25, .cls-26 {
        stroke-width: 0px;
      }

      .cls-2, .cls-12, .cls-13, .cls-3, .cls-4, .cls-5, .cls-14, .cls-15, .cls-6, .cls-7, .cls-8, .cls-9 {
        stroke-width: 2px;
      }

      .cls-2, .cls-15, .cls-7 {
        stroke: #f4e9d7;
      }

      .cls-2, .cls-7 {
        fill: #f4e9d7;
      }

      .cls-12, .cls-8 {
        stroke: #844e2c;
      }

      .cls-12, .cls-18 {
        fill: #844e2c;
      }

      .cls-13 {
        fill: #764526;
      }

      .cls-13, .cls-6 {
        stroke: #62371d;
      }

      .cls-3, .cls-24 {
        fill: #928d85;
      }

      .cls-4, .cls-14 {
        stroke: #cac6be;
      }

      .cls-6, .cls-19 {
        fill: #6d3f23;
      }

      .cls-8, .cls-22 {
        fill: #b17e54;
      }

      .cls-20 {
        fill: #716d66;
      }

      .cls-21 {
        fill: #a49d93;
      }

      .cls-23 {
        fill: #ac7647;
      }

      .cls-25 {
        fill: #ede2cc;
      }

      .cls-26 {
        fill: #e3d7c0;
      }
    </style>
    <clipPath id="clippath">
      <rect class="cls-17" x="260.37" y="95.46" width="138.75" height="344.62"/>
    </clipPath>
  </defs>
  <g id="closet_open">
    <path id="leg" class="cls-11" d="m125.98,446.4v38.01c0,2.43,1.97,4.39,4.39,4.39h12.49c2.01,0,3.84-1.18,4.67-3.01l17.83-39.39h-39.37Z"/>
    <path id="leg-2" data-name="leg" class="cls-11" d="m395.04,446.4v38.01c0,2.43-1.97,4.39-4.39,4.39h-12.49c-2.01,0-3.84-1.18-4.67-3.01l-17.83-39.39h39.37Z"/>
    <path id="outline" class="cls-18" d="m107.87,79.89h300.19c4.2,0,7.4,3.86,6.52,7.97s-3.58,7.95-10.99,7.03v344.8h6.71c2.57,0,4.65,2.08,4.65,4.65v1.76c0,3.76-3.05,6.82-6.82,6.82H113.17c-3.33,0-6.03-2.7-6.03-6.03v-3.72c0-3,2.43-5.43,5.43-5.43h2.72V98.31s-10.78,3.1-13.69-10.67c-.84-3.99,2.2-7.75,6.28-7.75Z"/>
    <rect id="opening" class="cls-19" x="120.87" y="95.46" width="137.33" height="344.62"/>
    <polygon id="side" class="cls-6" points="120.87 96.34 155.81 107.31 155.81 402.47 120.87 440.09 120.87 96.34"/>
    <rect id="back" class="cls-13" x="155.81" y="107.31" width="110.94" height="295.16"/>
    <g id="shaft">
      <path class="cls-25" d="m132.73,132.7h134.02v13.16h-134.02s-4.26-6.58,0-13.16Z"/>
      <path class="cls-26" d="m131.49,140.92h123.98s7.42-3.59,0-8.22h11.28v13.16h-134.02s-1.23-1.24-1.23-4.94Z"/>
    </g>
    <g id="doors">
      <g>
        <rect class="cls-22" x="259.37" y="94.46" width="140.75" height="346.62"/>
        <path class="cls-18" d="m399.11,95.46v344.62h-138.75V95.46h138.75m2-2h-142.75v348.62h142.75V93.46h0Z"/>
      </g>
      <g class="cls-16">
        <rect class="cls-23" x="388.41" y="92.67" width="11.98" height="349.62"/>
      </g>
      <path class="cls-23" d="m281.06,248.04s.49-7.93,4.42-7.65,5.32-.36,5.95,6.69c.47,5.34.18,26.36.18,34.43,0,0,.82,9.95-6.06,10.56-4.5.4-5.71-12.05-5.1-28.04l.61-15.99Z"/>
      <path class="cls-18" d="m278.66,247.69s.49-7.93,4.42-7.65,5.77,1.33,5.95,6.69-2.28,27.14.18,34.43c0,0-.09,10.28-4.57,10.89s-7.2-12.39-6.59-28.37l.61-15.99Z"/>
    </g>
    <g id="open_door">
      <polygon class="cls-8" points="11.23 85.67 125.98 99.08 125.98 434.91 12.32 452.91 11.23 85.67"/>
      <rect class="cls-12" x="1" y="85.67" width="11.32" height="367.24"/>
    </g>
    <g id="hanger">
      <path class="cls-14" d="m183.03,164.28l51.95,12.71s.78-3.94-2.64-5.34c0,0-30.51-20.62-35.41-20.12l-14.18,11.11c-.57.45-.4,1.48.27,1.64Z"/>
      <path class="cls-4" d="m195.06,132.55s6.2-3.46,8.65,3.08-6.77,9.49-6.77,15.91"/>
    </g>
  </g>
  <g id="cat">
    <path id="fill" class="cls-21" d="m180.22,31.78s-11.07.51-15.65,1.27-14.87-3.38-14.87-3.38c0,0-14.07-2.28-19.38,3.67s-12.86,7.16-15.38,20.34c0,0-4.24,22.23,12,25.38,0,0,34.06,10.01,44.07,4.62.98-.53,2.08-.81,3.19-.75,3.3.2,9.76-.01,9.07-4.84,0,0,22.72,4.81,25.88,2.41s4.15-.57,3.63-5.33l-16.71-2.04s5.37-3.36,7.11-15.46c0,0,6.51-5.32,6.48-14.3,0,0,3.44-6.79,6.6-11.02,0,0-9.46,3.26-11.4,2.8,0,0-5-2.99-14.39-3.45,0,0-8.57-4.88-9.65-6.56s-.59,6.65-.59,6.65Z"/>
    <g id="shading">
      <path class="cls-5" d="m196.06,73.12c-2.45-.7-4.3-2.71-4.3-2.71-5.61-6.68-17.84-5.81-29.71-15.24s-21-10.06-21-10.06"/>
      <path class="cls-24" d="m181,77.31s.65,3.44-7.03,3.49c-7.22.05-7.08,2.79-11.88,2.47s-7.71.48-14.46-2.02-13.15-2.77-18.14-1.89l10.27,2.9s18.79,3.84,21.58,3.13c2.33-.59,5.97,0,9.14-1.49,1.31-.61,2.71-.99,4.15-.92,3.13.15,8.34-.3,8.62-4.9l-2.26-.77Z"/>
      <path class="cls-24" d="m200.77,43.01s1.99,1.15,9.97-1.51l5.52-9.16-15.49,10.67Z"/>
      <path class="cls-24" d="m186.62,60.58s5.43-.86,9.39,1.61c2.36,1.47-2.52,7.36-5.32,4.09s-13.23-5.75-13.18-6.11-10.42-4.09-12.7-6.4-20.25-8.38-20.25-8.38c0,0,10.37,3.82,21.47,12.58,0,0,5.24,4.12,13.41,6.19s11.44,5.77,11.44,5.77l5.18,3.19s6.07-5.33,7.34-14.71c0,0-13.09,3.02-16.78,2.17Z"/>
      <path class="cls-24" d="m128.17,68.04s-3.9-2.32,4.08-1.02,13.08,5.72,19.24,7.94c5.68,2.05,10.88.19,10.88.19,0,0,6.91-2.4,14.06-1.57s15.25,3.85,21.84,5.01c5.71,1,13.47.44,13.47.44,0,0-3.12,2.89-8.32,2.1s-21.77-2.71-27.24-4.48-17.44,2.07-17.44,2.07c0,0-8.51-.53-16.69-4.05s-13.88-6.63-13.88-6.63Z"/>
    </g>
    <g id="stripes">
      <path class="cls-20" d="m161.73,33.04s-7.17,6.14-6.61,12.78c0,0-5.79-9.06-6.07-15.74,0,0,9.84,2.96,12.68,2.96Z"/>
      <path class="cls-20" d="m140.75,68.37c-1.3,2.47-1.72,4.47.52,5.42.19.08.38.15.6.22l-13.7-5.97s11.62,3.16,13.41-4.36c0,0,.57,2.03-.83,4.69Z"/>
      <path class="cls-20" d="m146.05,75.7s8.54-2.16,8.11-6.89c0,0,1.67,8.63,4.74,8.71s-8.69,2.09-12.85-1.81Z"/>
      <path class="cls-20" d="m143.22,29.24s-2.04,10.71-.58,15.57c0,0-4.41-.76-12.32-11.47,0,0,5.48-4.11,12.9-4.1Z"/>
      <path class="cls-20" d="m125.62,37.48s.3,9.33,4.96,16.23c0,0-7.39-6.18-14.51-4.35,0,0,2.87-7.72,9.55-11.88Z"/>
      <path class="cls-20" d="m114.64,55.92s2.47,3.91,4.95,4.59l-4.78,4.39s-.62-4.9-.17-8.98Z"/>
      <path class="cls-20" d="m116.98,71.81s2.09,2.69,9.86.8c0,0-3.31.99-2.48,5.18,0,0-6.67-2.58-7.38-5.98Z"/>
      <path class="cls-20" d="m131.22,79.59s.44-1.98,6.05-3.43c0,0-.14,5.15,2.86,5.33,0,0-7.71-.63-8.91-1.89Z"/>
      <path class="cls-20" d="m145.11,82.85s.47-2.37,3.36-4.12c0,0,1.75,5.3,5.61,6.02l-8.97-1.9Z"/>
      <path class="cls-20" d="m155.83,84.48l2.01-3.55s3.07,2.65,2.22,3.89l-4.23-.34Z"/>
      <path class="cls-20" d="m162.27,85s3.14-.98,3.93-4.83c0,0,1.66,3.64,4.49,3.66,0,0-6.98,1.63-8.42,1.17Z"/>
      <path class="cls-20" d="m178.07,31.89s-6.3,11.1-7.16,18.31c0,0-.63-8.45-6.34-17.15l13.5-1.16Z"/>
      <path class="cls-20" d="m189.95,32.24l-.82,10.1s2.65-7.2,5.8-9.69l-4.98-.41Z"/>
      <path class="cls-20" d="m198.61,32.95s-4.8,3.32-4.54,10.28c0,0,1.88-6.17,7.78-8.71l-3.24-1.57Z"/>
      <path class="cls-20" d="m208.58,47.73s-.67,2.28-8.43,3.98c0,0,4.75.9,8.04-2.11l.39-1.88Z"/>
      <path class="cls-20" d="m205.67,53.37s-.79,2.13-6.62,2c0,0-.36,1,3.94,1.35,0,0,2.02-.32,2.68-3.35Z"/>
      <path class="cls-20" d="m173.18,82.18l1.07-3.42s2.79,3.24,5.52,3.4c0,0-5.08.76-6.59.02Z"/>
    </g>
    <path id="outline-2" data-name="outline" class="cls-9" d="m180.22,31.78s-11.07.51-15.65,1.27-14.87-3.38-14.87-3.38c0,0-14.07-2.28-19.38,3.67-5.31,5.95-12.86,7.16-15.38,20.34,0,0-4.24,22.23,12,25.38,0,0,34.09,10.02,44.08,4.62.97-.53,2.06-.81,3.17-.74,3.3.2,9.77,0,9.08-4.84,0,0,22.72,4.81,25.88,2.41s4.15-.57,3.63-5.33l-16.71-2.04s5.37-3.36,7.11-15.46c0,0,6.51-5.32,6.48-14.3,0,0,3.44-6.79,6.6-11.02,0,0-9.46,3.26-11.4,2.8,0,0-5-2.99-14.39-3.45,0,0-8.57-4.88-9.65-6.56s-.59,6.65-.59,6.65Z"/>
    <g id="lineart">
      <path class="cls-5" d="m196.06,73.12c-2.45-.7-4.3-2.71-4.3-2.71-5.61-6.68-17.84-5.81-29.71-15.24s-21-10.06-21-10.06"/>
      <path class="cls-5" d="m123.36,63.5s-.91,2.51,10.5,7.64,21.51,9.27,29.33,6.59,19.77-.43,21.97.73"/>
      <line class="cls-5" x1="200.04" y1="43.23" x2="216.25" y2="32.34"/>
      <path class="cls-5" d="m203.17,57.66s-13.99,4.29-17.85,2.23c0,0-5.18-6.09-4.67-14.91,0,0,3.2-8.5,9.81-13.29"/>
      <path class="cls-3" d="m180.37,25.09c-.77,10.24,3.03,13.98,3.03,13.98l4.16-5.41s-2.93,1.14-6.75-8.54"/>
      <path class="cls-1" d="m211.2,40.74s-1.58,2.07-3.96,2.21"/>
    </g>
    <g id="face">
      <path class="cls-10" d="m197.59,47.85s-2.59.77-4.34.62c-.9-.08-1.74.41-2.18,1.2-.57,1.02-1.01,2.42-.34,3.79,0,0,.36-1.97,2.64-2.87s4.03-.48,4.22-2.74Z"/>
      <path class="cls-10" d="m186.15,51s.75-.8,1.03-3.47c.06-.52-.16-1.04-.58-1.36-.52-.39-1.36-.81-2.59-.82,0,0-.11,1.51,1,2.03.43.2.69.65.59,1.12-.04.22-.12.48-.23.8,0,0-.33.62.79,1.7Z"/>
      <path class="cls-10" d="m183.84,54.03s1.66-1.08,3.04.5c0,0-.34,1.58-2.33,2.6,0,0-.26-2.14-.71-3.1Z"/>
    </g>
  </g>
  <g id="sparkles">
    <circle id="disk" class="cls-7" cx="515.28" cy="205.83" r="2.6"/>
    <circle id="circle" class="cls-15" cx="430.07" cy="172.94" r="3.1"/>
    <path id="diamond" class="cls-7" d="m486.16,140.99c1.43-1.13,3.75-3.3,4.66-6.06.08-.25.44-.23.48.04.24,1.78.91,4.6,2.73,5.76.39.25.43.81.09,1.13-1.13,1.05-3.02,3.11-3.19,5.28-.01.17-.24.22-.31.06-.62-1.56-2-4.28-4.27-5.11-.48-.18-.6-.79-.2-1.1Z"/>
    <g id="plus">
      <line class="cls-2" x1="455.66" y1="240.24" x2="455.66" y2="235.69"/>
      <line class="cls-2" x1="458.95" y1="243.84" x2="462.24" y2="243.84"/>
      <line class="cls-2" x1="455.66" y1="245.96" x2="455.66" y2="251.75"/>
      <line class="cls-2" x1="451.89" y1="243.84" x2="446.65" y2="243.84"/>
    </g>
    <circle id="disk-2" data-name="disk" class="cls-7" cx="337.29" cy="66.98" r="2.6"/>
    <path id="diamond-2" data-name="diamond" class="cls-7" d="m284.54,126.39c1.43-1.13,3.75-3.3,4.66-6.06.08-.25.44-.23.48.04.24,1.78.91,4.6,2.73,5.76.39.25.43.81.09,1.13-1.13,1.05-3.02,3.11-3.19,5.28-.01.17-.24.22-.31.06-.62-1.56-2-4.28-4.27-5.11-.48-.18-.6-.79-.2-1.1Z"/>
    <g id="plus-2" data-name="plus">
      <line class="cls-2" x1="360.74" y1="224.62" x2="360.74" y2="218.4"/>
      <line class="cls-2" x1="364.03" y1="229.55" x2="367.32" y2="229.55"/>
      <line class="cls-2" x1="360.74" y1="232.45" x2="360.74" y2="240.38"/>
      <line class="cls-2" x1="356.98" y1="229.55" x2="351.73" y2="229.55"/>
    </g>
    <path id="diamond-3" data-name="diamond" class="cls-7" d="m422.99,317.76c1.43-1.12,3.75-3.26,4.66-5.98.08-.25.44-.22.48.04.24,1.76.91,4.54,2.73,5.69.39.25.43.8.09,1.11-1.13,1.04-3.02,3.07-3.19,5.21-.01.17-.24.22-.31.06-.62-1.54-2-4.22-4.27-5.04-.48-.17-.6-.78-.2-1.09Z"/>
    <g id="plus-3" data-name="plus">
      <line class="cls-2" x1="467.96" y1="99.93" x2="467.96" y2="96.52"/>
      <line class="cls-2" x1="471.25" y1="102.63" x2="474.54" y2="102.63"/>
      <line class="cls-2" x1="467.96" y1="104.21" x2="467.96" y2="108.55"/>
      <line class="cls-2" x1="464.19" y1="102.63" x2="458.95" y2="102.63"/>
    </g>
    <circle id="circle-2" data-name="circle" class="cls-15" cx="383.27" cy="40.44" r="3.1"/>
    <g id="plus-4" data-name="plus">
      <line class="cls-2" x1="246.4" y1="7.91" x2="246.4" y2="1"/>
      <line class="cls-2" x1="249.69" y1="13.39" x2="252.98" y2="13.39"/>
      <line class="cls-2" x1="246.4" y1="16.61" x2="246.4" y2="25.42"/>
      <line class="cls-2" x1="242.64" y1="13.39" x2="237.39" y2="13.39"/>
    </g>
    <path id="diamond-4" data-name="diamond" class="cls-7" d="m82.79,272.2c1.43-1.12,3.75-3.26,4.66-5.98.08-.25.44-.22.48.04.24,1.76.91,4.54,2.73,5.69.39.25.43.8.09,1.11-1.13,1.04-3.02,3.07-3.19,5.21-.01.17-.24.22-.31.06-.62-1.54-2-4.22-4.27-5.04-.48-.17-.6-.78-.2-1.09Z"/>
    <g id="plus-5" data-name="plus">
      <line class="cls-2" x1="59.47" y1="200.3" x2="59.47" y2="195.76"/>
      <line class="cls-2" x1="62.77" y1="203.91" x2="66.06" y2="203.91"/>
      <line class="cls-2" x1="59.47" y1="206.02" x2="59.47" y2="211.82"/>
      <line class="cls-2" x1="55.71" y1="203.91" x2="50.47" y2="203.91"/>
    </g>
    <circle id="circle-3" data-name="circle" class="cls-15" cx="43.98" cy="110.41" r="3.1"/>
    <circle id="disk-3" data-name="disk" class="cls-7" cx="49.5" cy="305.65" r="3.56"/>
    <g id="plus-6" data-name="plus">
      <line class="cls-2" x1="92.57" y1="353.86" x2="92.57" y2="347.96"/>
      <line class="cls-2" x1="96.84" y1="358.54" x2="101.11" y2="358.54"/>
      <line class="cls-2" x1="92.57" y1="361.29" x2="92.57" y2="368.82"/>
      <line class="cls-2" x1="87.68" y1="358.54" x2="80.87" y2="358.54"/>
    </g>
  </g>
</svg>