<?xml version="1.0" encoding="UTF-8"?>
<svg id="Layer_2" data-name="Layer 2" xmlns="http://www.w3.org/2000/svg" xmlns:xlink="http://www.w3.org/1999/xlink" viewBox="0 0 562.55 525.46">
  <defs>
    <style>
      .cls-1, .cls-2, .cls-3, .cls-4, .cls-5, .cls-6, .cls-7, .cls-8, .cls-9 {
        stroke-linecap: round;
      }

      .cls-1, .cls-3, .cls-8, .cls-9, .cls-10, .cls-11, .cls-12, .cls-13, .cls-14, .cls-15, .cls-16, .cls-17, .cls-18, .cls-19, .cls-20 {
        stroke-linejoin: round;
      }

      .cls-1, .cls-3, .cls-8, .cls-19 {
        stroke: #837d74;
      }

      .cls-1, .cls-21 {
        fill: #837d74;
      }

      .cls-22 {
        fill: #76421f;
        stroke: #633518;
        stroke-width: 5px;
      }

      .cls-22, .cls-2, .cls-23, .cls-24, .cls-25, .cls-26, .cls-27, .cls-28, .cls-29, .cls-4, .cls-5, .cls-6, .cls-7, .cls-30, .cls-31, .cls-32, .cls-33 {
        stroke-miterlimit: 10;
      }

      .cls-34 {
        clip-path: url(#clippath);
      }

      .cls-35, .cls-4, .cls-5, .cls-6, .cls-7, .cls-8, .cls-30, .cls-31, .cls-32, .cls-33, .cls-9, .cls-18, .cls-19, .cls-20 {
        fill: none;
      }

      .cls-35, .cls-36, .cls-21, .cls-37, .cls-38, .cls-39, .cls-40, .cls-41, .cls-42, .cls-43, .cls-44, .cls-45, .cls-46, .cls-47, .cls-48, .cls-49, .cls-50 {
        stroke-width: 0px;
      }

      .cls-2, .cls-23, .cls-24, .cls-25, .cls-26, .cls-27, .cls-28, .cls-29, .cls-3, .cls-7, .cls-8, .cls-30, .cls-31, .cls-32, .cls-33, .cls-10, .cls-11, .cls-12, .cls-13, .cls-14, .cls-15, .cls-16, .cls-17, .cls-18, .cls-19, .cls-20 {
        stroke-width: 2px;
      }

      .cls-2, .cls-33, .cls-16 {
        stroke: #f4e9d7;
      }

      .cls-2, .cls-16 {
        fill: #f4e9d7;
      }

      .cls-23 {
        fill: #9d7c4f;
      }

      .cls-23, .cls-6, .cls-31 {
        stroke: #8b6a3d;
      }

      .cls-24 {
        stroke: #8b723d;
      }

      .cls-24, .cls-26, .cls-13 {
        fill: #af935e;
      }

      .cls-25 {
        fill: #aba8a6;
      }

      .cls-25, .cls-27, .cls-29, .cls-7, .cls-32, .cls-11, .cls-14 {
        stroke: #878685;
      }

      .cls-26, .cls-17, .cls-20 {
        stroke: #755931;
      }

      .cls-27, .cls-14 {
        fill: #bbb4ae;
      }

      .cls-28, .cls-5, .cls-30 {
        stroke: #86683b;
      }

      .cls-28, .cls-12 {
        fill: #a68757;
      }

      .cls-29, .cls-11, .cls-40 {
        fill: #cccac8;
      }

      .cls-3, .cls-48 {
        fill: #928d85;
      }

      .cls-4, .cls-10, .cls-18 {
        stroke: #826337;
      }

      .cls-9 {
        stroke: #895943;
        stroke-width: 4px;
      }

      .cls-10 {
        fill: #b08e59;
      }

      .cls-12 {
        stroke: #87683b;
      }

      .cls-13 {
        stroke: #7c6435;
      }

      .cls-15 {
        fill: #937a46;
        stroke: #6c5129;
      }

      .cls-17, .cls-46 {
        fill: #937445;
      }

      .cls-36 {
        fill: #844e2c;
      }

      .cls-37 {
        fill: #4b1806;
      }

      .cls-38 {
        fill: #716d66;
      }

      .cls-39 {
        fill: #c59571;
      }

      .cls-41 {
        fill: #a49d93;
      }

      .cls-42 {
        fill: #b17e54;
      }

      .cls-43 {
        fill: #ae785b;
      }

      .cls-44 {
        fill: #a8844f;
      }

      .cls-45 {
        fill: #ac7647;
      }

      .cls-47 {
        fill: #86673c;
      }

      .cls-49 {
        fill: #7f6339;
      }

      .cls-50 {
        fill: #997848;
      }
    </style>
    <clipPath id="clippath">
      <rect class="cls-35" x="221.9" y="95.38" width="138.75" height="344.62"/>
    </clipPath>
  </defs>
  <g id="shadows">
    <rect class="cls-41" x="86.71" y="466.38" width="305.58" height="24.56"/>
  </g>
  <g id="closet_closed">
    <path id="leg" class="cls-22" d="m87.51,446.32v38.01c0,2.43,1.97,4.39,4.39,4.39h12.49c2.01,0,3.84-1.18,4.67-3.01l17.83-39.39h-39.37Z"/>
    <path id="leg-2" data-name="leg" class="cls-22" d="m356.58,446.32v38.01c0,2.43-1.97,4.39-4.39,4.39h-12.49c-2.01,0-3.84-1.18-4.67-3.01l-17.83-39.39h39.37Z"/>
    <path id="outline" class="cls-36" d="m69.4,79.81h300.19c4.2,0,7.4,3.86,6.52,7.97s-3.58,7.95-10.99,7.03v344.8h6.71c2.57,0,4.65,2.08,4.65,4.65v1.76c0,3.76-3.05,6.82-6.82,6.82H74.71c-3.33,0-6.03-2.7-6.03-6.03v-3.72c0-3,2.43-5.43,5.43-5.43h2.72V98.23s-10.78,3.1-13.69-10.67c-.84-3.99,2.2-7.75,6.28-7.75Z"/>
    <g id="doors">
      <rect class="cls-42" x="82.4" y="95.38" width="133.63" height="344.62"/>
      <rect class="cls-42" x="221.9" y="95.38" width="138.75" height="344.62"/>
      <g class="cls-34">
        <rect class="cls-45" x="349.94" y="92.6" width="11.98" height="349.62"/>
      </g>
      <path class="cls-45" d="m242.6,247.96s.49-7.93,4.42-7.65,5.32-.36,5.95,6.69c.47,5.34.18,26.36.18,34.43,0,0,.82,9.95-6.06,10.56-4.5.4-5.71-12.05-5.1-28.04l.61-15.99Z"/>
      <path class="cls-45" d="m187.67,248.14s.49-7.93,4.42-7.65,5.32-.36,5.95,6.69c.47,5.34.18,26.36.18,34.43,0,0,.82,9.95-6.06,10.56-4.5.4-5.71-12.05-5.1-28.04l.61-15.99Z"/>
      <path class="cls-36" d="m185.27,247.78s.49-7.93,4.42-7.65,5.77,1.33,5.95,6.69-2.28,27.14.18,34.43c0,0-.09,10.28-4.57,10.89s-7.2-12.39-6.59-28.37l.61-15.99Z"/>
      <path class="cls-36" d="m240.2,247.61s.49-7.93,4.42-7.65,5.77,1.33,5.95,6.69-2.28,27.14.18,34.43c0,0-.09,10.28-4.57,10.89s-7.2-12.39-6.59-28.37l.61-15.99Z"/>
    </g>
  </g>
  <g id="cat">
    <g>
      <path id="fill" class="cls-41" d="m148.18,33.17s-11.07.51-15.65,1.27-14.87-3.38-14.87-3.38c0,0-14.07-2.28-19.38,3.67s-12.86,7.16-15.38,20.34c0,0-4.24,22.23,12,25.38,0,0,34.06,10.01,44.07,4.62.98-.53,2.08-.81,3.19-.75,3.3.2,9.76-.01,9.07-4.84,0,0,22.72,4.81,25.88,2.41,3.16-2.4,4.15-.57,3.63-5.33l-16.71-2.04s5.37-3.36,7.11-15.46c0,0,6.51-5.32,6.48-14.3,0,0,3.44-6.79,6.6-11.02,0,0-9.46,3.26-11.4,2.8,0,0-5-2.99-14.39-3.45,0,0-8.57-4.88-9.65-6.56s-.59,6.65-.59,6.65Z"/>
      <g id="shading">
        <path class="cls-8" d="m164.03,74.51c-2.45-.7-4.3-2.71-4.3-2.71-5.61-6.68-17.84-5.81-29.71-15.24s-21-10.06-21-10.06"/>
        <path class="cls-48" d="m148.97,78.7s.65,3.44-7.03,3.49c-7.22.05-7.08,2.79-11.88,2.47s-7.71.48-14.46-2.02c-6.75-2.49-13.15-2.77-18.14-1.89l10.27,2.9s18.79,3.84,21.58,3.13c2.33-.59,5.97,0,9.14-1.49,1.31-.61,2.71-.99,4.15-.92,3.13.15,8.34-.3,8.62-4.9l-2.26-.77Z"/>
        <path class="cls-48" d="m168.73,44.4s1.99,1.15,9.97-1.51l5.52-9.16-15.49,10.67Z"/>
        <path class="cls-48" d="m154.58,61.97s5.43-.86,9.39,1.61c2.36,1.47-2.52,7.36-5.32,4.09s-13.23-5.75-13.18-6.11-10.42-4.09-12.7-6.4-20.25-8.38-20.25-8.38c0,0,10.37,3.82,21.47,12.58,0,0,5.24,4.12,13.41,6.19s11.44,5.77,11.44,5.77l5.18,3.19s6.07-5.33,7.34-14.71c0,0-13.09,3.02-16.78,2.17Z"/>
        <path class="cls-48" d="m96.13,69.43s-3.9-2.32,4.08-1.02,13.08,5.72,19.24,7.94c5.68,2.05,10.88.19,10.88.19,0,0,6.91-2.4,14.06-1.57s15.25,3.85,21.84,5.01c5.71,1,13.47.44,13.47.44,0,0-3.12,2.89-8.32,2.1s-21.77-2.71-27.24-4.48-17.44,2.07-17.44,2.07c0,0-8.51-.53-16.69-4.05s-13.88-6.63-13.88-6.63Z"/>
      </g>
      <g id="stripes">
        <path class="cls-38" d="m129.7,34.43s-7.17,6.14-6.61,12.78c0,0-5.79-9.06-6.07-15.74,0,0,9.84,2.96,12.68,2.96Z"/>
        <path class="cls-38" d="m108.72,69.76c-1.3,2.47-1.72,4.47.52,5.42.19.08.38.15.6.22l-13.7-5.97s11.62,3.16,13.41-4.36c0,0,.57,2.03-.83,4.69Z"/>
        <path class="cls-38" d="m114.01,77.09s8.54-2.16,8.11-6.89c0,0,1.67,8.63,4.74,8.71s-8.69,2.09-12.85-1.81Z"/>
        <path class="cls-38" d="m111.18,30.63s-2.04,10.71-.58,15.57c0,0-4.41-.76-12.32-11.47,0,0,5.48-4.11,12.9-4.1Z"/>
        <path class="cls-38" d="m93.59,38.87s.3,9.33,4.96,16.23c0,0-7.39-6.18-14.51-4.35,0,0,2.87-7.72,9.55-11.88Z"/>
        <path class="cls-38" d="m82.6,57.31s2.47,3.91,4.95,4.59l-4.78,4.39s-.62-4.9-.17-8.98Z"/>
        <path class="cls-38" d="m84.95,73.2s2.09,2.69,9.86.8c0,0-3.31.99-2.48,5.18,0,0-6.67-2.58-7.38-5.98Z"/>
        <path class="cls-38" d="m99.19,80.98s.44-1.98,6.05-3.43c0,0-.14,5.15,2.86,5.33,0,0-7.71-.63-8.91-1.89Z"/>
        <path class="cls-38" d="m113.07,84.24s.47-2.37,3.36-4.12c0,0,1.75,5.3,5.61,6.02l-8.97-1.9Z"/>
        <path class="cls-38" d="m123.79,85.86l2.01-3.55s3.07,2.65,2.22,3.89l-4.23-.34Z"/>
        <path class="cls-38" d="m130.24,86.39s3.14-.98,3.93-4.83c0,0,1.66,3.64,4.49,3.66,0,0-6.98,1.63-8.42,1.17Z"/>
        <path class="cls-38" d="m146.03,33.28s-6.3,11.1-7.16,18.31c0,0-.63-8.45-6.34-17.15l13.5-1.16Z"/>
        <path class="cls-38" d="m157.91,33.63l-.82,10.1s2.65-7.2,5.8-9.69l-4.98-.41Z"/>
        <path class="cls-38" d="m166.58,34.33s-4.8,3.32-4.54,10.28c0,0,1.88-6.17,7.78-8.71l-3.24-1.57Z"/>
        <path class="cls-38" d="m176.55,49.12s-.67,2.28-8.43,3.98c0,0,4.75.9,8.04-2.11l.39-1.88Z"/>
        <path class="cls-38" d="m173.64,54.76s-.79,2.13-6.62,2c0,0-.36,1,3.94,1.35,0,0,2.02-.32,2.68-3.35Z"/>
        <path class="cls-38" d="m141.15,83.57l1.07-3.42s2.79,3.24,5.52,3.4c0,0-5.08.76-6.59.02Z"/>
      </g>
      <path id="outline-2" data-name="outline" class="cls-19" d="m148.18,33.17s-11.07.51-15.65,1.27-14.87-3.38-14.87-3.38c0,0-14.07-2.28-19.38,3.67s-12.86,7.16-15.38,20.34c0,0-4.24,22.23,12,25.38,0,0,34.09,10.02,44.08,4.62.97-.53,2.06-.81,3.17-.74,3.3.2,9.77,0,9.08-4.84,0,0,22.72,4.81,25.88,2.41s4.15-.57,3.63-5.33l-16.71-2.04s5.37-3.36,7.11-15.46c0,0,6.51-5.32,6.48-14.3,0,0,3.44-6.79,6.6-11.02,0,0-9.46,3.26-11.4,2.8,0,0-5-2.99-14.39-3.45,0,0-8.57-4.88-9.65-6.56s-.59,6.65-.59,6.65Z"/>
      <g id="lineart">
        <path class="cls-8" d="m164.03,74.51c-2.45-.7-4.3-2.71-4.3-2.71-5.61-6.68-17.84-5.81-29.71-15.24s-21-10.06-21-10.06"/>
        <path class="cls-8" d="m91.33,64.89s-.91,2.51,10.5,7.64,21.51,9.27,29.33,6.59,19.77-.43,21.97.73"/>
        <line class="cls-8" x1="168.01" y1="44.61" x2="184.22" y2="33.73"/>
        <path class="cls-8" d="m171.14,59.05s-13.99,4.29-17.85,2.23c0,0-5.18-6.09-4.67-14.91,0,0,3.2-8.5,9.81-13.29"/>
        <path class="cls-3" d="m148.33,26.48c-.77,10.24,3.03,13.98,3.03,13.98l4.16-5.41s-2.93,1.14-6.75-8.54"/>
        <path class="cls-1" d="m179.16,42.13s-1.58,2.07-3.96,2.21"/>
      </g>
      <g id="face">
        <path class="cls-21" d="m165.55,49.24s-2.59.77-4.34.62c-.9-.08-1.74.41-2.18,1.2-.57,1.02-1.01,2.42-.34,3.79,0,0,.36-1.97,2.64-2.87s4.03-.48,4.22-2.74Z"/>
        <path class="cls-21" d="m154.12,52.39s.75-.8,1.03-3.47c.06-.52-.16-1.04-.58-1.36-.52-.39-1.36-.81-2.59-.82,0,0-.11,1.51,1,2.03.43.2.69.65.59,1.12-.04.22-.12.48-.23.8,0,0-.33.62.79,1.7Z"/>
        <path class="cls-21" d="m151.8,55.42s1.66-1.08,3.04.5c0,0-.34,1.58-2.33,2.6,0,0-.26-2.14-.71-3.1Z"/>
      </g>
    </g>
  </g>
  <g id="sparkles">
    <g>
      <circle id="disk" class="cls-16" cx="475.4" cy="205.83" r="2.6"/>
      <circle id="circle" class="cls-33" cx="390.19" cy="172.94" r="3.1"/>
      <path id="diamond" class="cls-16" d="m446.28,140.99c1.43-1.13,3.75-3.3,4.66-6.06.08-.25.44-.23.48.04.24,1.78.91,4.6,2.73,5.76.39.25.43.81.09,1.13-1.13,1.05-3.02,3.11-3.19,5.28-.01.17-.24.22-.31.06-.62-1.56-2-4.28-4.27-5.11-.48-.18-.6-.79-.2-1.1Z"/>
      <g id="plus">
        <line class="cls-2" x1="415.78" y1="240.24" x2="415.78" y2="235.69"/>
        <line class="cls-2" x1="419.07" y1="243.84" x2="422.36" y2="243.84"/>
        <line class="cls-2" x1="415.78" y1="245.96" x2="415.78" y2="251.75"/>
        <line class="cls-2" x1="412.02" y1="243.84" x2="406.77" y2="243.84"/>
      </g>
      <circle id="disk-2" data-name="disk" class="cls-16" cx="297.41" cy="66.98" r="2.6"/>
      <path id="diamond-2" data-name="diamond" class="cls-16" d="m244.66,126.39c1.43-1.13,3.75-3.3,4.66-6.06.08-.25.44-.23.48.04.24,1.78.91,4.6,2.73,5.76.39.25.43.81.09,1.13-1.13,1.05-3.02,3.11-3.19,5.28-.01.17-.24.22-.31.06-.62-1.56-2-4.28-4.27-5.11-.48-.18-.6-.79-.2-1.1Z"/>
      <g id="plus-2" data-name="plus">
        <line class="cls-2" x1="320.86" y1="224.62" x2="320.86" y2="218.4"/>
        <line class="cls-2" x1="324.15" y1="229.55" x2="327.44" y2="229.55"/>
        <line class="cls-2" x1="320.86" y1="232.45" x2="320.86" y2="240.38"/>
        <line class="cls-2" x1="317.1" y1="229.55" x2="311.85" y2="229.55"/>
      </g>
      <path id="diamond-3" data-name="diamond" class="cls-16" d="m383.11,317.76c1.43-1.12,3.75-3.26,4.66-5.98.08-.25.44-.22.48.04.24,1.76.91,4.54,2.73,5.69.39.25.43.8.09,1.11-1.13,1.04-3.02,3.07-3.19,5.21-.01.17-.24.22-.31.06-.62-1.54-2-4.22-4.27-5.04-.48-.17-.6-.78-.2-1.09Z"/>
      <g id="plus-3" data-name="plus">
        <line class="cls-2" x1="428.08" y1="99.93" x2="428.08" y2="96.52"/>
        <line class="cls-2" x1="431.37" y1="102.63" x2="434.66" y2="102.63"/>
        <line class="cls-2" x1="428.08" y1="104.21" x2="428.08" y2="108.55"/>
        <line class="cls-2" x1="424.32" y1="102.63" x2="419.07" y2="102.63"/>
      </g>
      <circle id="circle-2" data-name="circle" class="cls-33" cx="343.39" cy="40.44" r="3.1"/>
      <g id="plus-4" data-name="plus">
        <line class="cls-2" x1="206.52" y1="7.91" x2="206.52" y2="1"/>
        <line class="cls-2" x1="209.81" y1="13.39" x2="213.1" y2="13.39"/>
        <line class="cls-2" x1="206.52" y1="16.61" x2="206.52" y2="25.42"/>
        <line class="cls-2" x1="202.76" y1="13.39" x2="197.51" y2="13.39"/>
      </g>
      <path id="diamond-4" data-name="diamond" class="cls-16" d="m42.91,272.2c1.43-1.12,3.75-3.26,4.66-5.98.08-.25.44-.22.48.04.24,1.76.91,4.54,2.73,5.69.39.25.43.8.09,1.11-1.13,1.04-3.02,3.07-3.19,5.21-.01.17-.24.22-.31.06-.62-1.54-2-4.22-4.27-5.04-.48-.17-.6-.78-.2-1.09Z"/>
      <g id="plus-5" data-name="plus">
        <line class="cls-2" x1="19.6" y1="200.3" x2="19.6" y2="195.76"/>
        <line class="cls-2" x1="22.89" y1="203.91" x2="26.18" y2="203.91"/>
        <line class="cls-2" x1="19.6" y1="206.02" x2="19.6" y2="211.82"/>
        <line class="cls-2" x1="15.83" y1="203.91" x2="10.59" y2="203.91"/>
      </g>
      <circle id="circle-3" data-name="circle" class="cls-33" cx="4.1" cy="110.41" r="3.1"/>
      <circle id="disk-3" data-name="disk" class="cls-16" cx="9.62" cy="305.65" r="3.56"/>
      <g id="plus-6" data-name="plus">
        <line class="cls-2" x1="52.69" y1="353.86" x2="52.69" y2="347.96"/>
        <line class="cls-2" x1="56.96" y1="358.54" x2="61.23" y2="358.54"/>
        <line class="cls-2" x1="52.69" y1="361.29" x2="52.69" y2="368.82"/>
        <line class="cls-2" x1="47.8" y1="358.54" x2="40.99" y2="358.54"/>
      </g>
    </g>
  </g>
  <g id="plant">
    <g>
      <ellipse class="cls-41" cx="510.38" cy="503.01" rx="52.18" ry="13.91"/>
      <ellipse class="cls-41" cx="405.41" cy="507.75" rx="35.48" ry="16.37"/>
      <g>
        <path class="cls-27" d="m487.17,402.12l-9.65,2.33c-26.79-4.61-32.42,20.57-32.42,20.57-1.4,14.37,8.18,23.16,3.79,37.73-4.39,14.57,3.19,26.35,3.19,26.35-.6,10.78,7.39,16.77,7.39,16.77,0,0,18.76,11.98,22.76,11.4,3.99-.57,9.78-2.62,9.78-2.62,5.19,5.39,21.56.8,21.56.8l13.52-5.45c5.52-2.23,9.01-7.73,8.68-13.67l-1.32-23.39c-.19-3.39-2.4-6.32-5.6-7.45l-.7-13.32c0-6.39-4.79-32.34-11.98-39.13-5.13-4.85-15.95-8.68-21.72-10.47-2.36-.73-4.85-.88-7.28-.45m-30.1,31.45s-7.88-13.49,8.59-21.31c0,0-8.29,13.32-8.59,21.31Z"/>
        <path id="shade" class="cls-41" d="m452.97,478.46s4.12,24.62,22.79,31.98c0,0,.7,3.54,3.57,6.25l-19.86-10.82s-10.52-5.42-6.51-27.41Z"/>
        <path class="cls-41" d="m490.2,510.67s-13.67,1.64-15.67-5.31c0,0,1.3,9.7,4.8,11.33s12.68-2.04,12.68-2.04l-1.81-3.98Z"/>
        <path class="cls-41" d="m454.42,425.3s-3.46,3.54-3.97,26.07c0,0-17.51-36.09,9.42-41.33l4.84,1.23s-11.17,9.89-10.29,14.02Z"/>
        <path class="cls-41" d="m473.09,468.47s-3.82,1.09-9.34-.46l.58,3.79s7.59,1.96,8.76.64v-3.98Z"/>
        <path class="cls-41" d="m534.69,479.56s5.78,29.61-23.71,36.51l19.08-7.72s7.51-5.52,5.73-13.55l-1.1-15.24Z"/>
        <path class="cls-41" d="m510.98,468.01s23,.56,15.69-27.17l2.18,24.64s-13.43,1.15-17.87,2.53Z"/>
        <polygon class="cls-41" points="455.19 460.8 459.87 464.88 459.87 468.4 454.42 463.16 455.19 460.8"/>
        <path id="front_zip" class="cls-40" d="m532.44,467.94c-3.57-3.33-13.95-2.42-13.95-2.42l-22.53,6.48c-5.88,1.69-9.93,7.07-9.93,13.19v15.81l3.42,1.92s.93-18.79,2.35-21.33,4.65-8.23,18.53-9.71l18.62-3.77,3.5-.17Z"/>
        <path id="front_panel" class="cls-32" d="m533.98,470.61c-1.24-3.66-6.49-2.21-6.49-2.21l-26.09,5.29c-5.88,1.19-10.23,6.17-10.6,12.16-.69,11.09-1.28,27.46,1.21,28.8"/>
        <path id="front_zip-2" data-name="front_zip" class="cls-7" d="m532.44,467.94c-3.57-3.33-13.08-1.71-13.08-1.71l-23.41,5.77c-5.88,1.69-9.93,7.07-9.93,13.19v17.03"/>
        <path id="patch" class="cls-25" d="m499.25,433.57c2.61-.99,11.98-2.7,14.16-.78.75.66,1.63,1.13,1.76,2.12.36,2.58.61,7.7-2.43,10.21-4.17,3.45-16.23,4.02-16.66,0-.29-2.71-1.06-7.93.5-9.86.88-1.09,1.4-1.21,2.68-1.7Z"/>
        <path id="bottle_holder" class="cls-32" d="m473.09,472.45c.07.74-10.47,1.75-18.67-9.29"/>
        <g id="zipper">
          <circle class="cls-29" cx="488.2" cy="503.18" r="2.18"/>
          <path class="cls-11" d="m481.4,507.36l3.92,4.11s1.03-4.9,3.73-6.46c0,0-2.24,1.47-3.03-1.82l-4.62,4.18Z"/>
        </g>
        <path id="main_pouch" class="cls-32" d="m452.09,489.1s4.98-61.86,6.34-63.8c.8-1.15,2.72-15.46,24.12-22.08,0,0,11.65-6.01,31.3,7.95,0,0-4.56-3.72-23.48,4.87-18.92,8.58-17.24,29.94-17.24,29.94,0,0-.04,55.87,1.88,62.39,1.78,6.04.82,6.06,7.22,8.89"/>
        <path id="main_zip" class="cls-29" d="m464.36,470.87l1.1-32.05s2.85-17.95,15.44-24.54c0,0,15.8-10.96,25.83-7.07l-7.4-3.26s-16.86,2.22-25.09,9.53c-8.47,7.53-11.29,19.19-11.29,19.19,0,0-3.09,8.99-3.09,35.73l4.49,2.47Z"/>
        <path id="front_strap" class="cls-7" d="m465.66,412.26s-10.7-4.86-16.02,2.9"/>
        <path id="other_strap" class="cls-14" d="m479.38,404.31s0-3.36,4.51-4.42c1.35-.32,7.22-2.68,11.81,2.79,0,0-5.21-1.11-16.33,1.64Z"/>
        <path id="main_pouch-2" data-name="main_pouch" class="cls-32" d="m452.09,489.1s4.98-61.86,6.34-63.8"/>
        <path id="lineart-2" data-name="lineart" class="cls-32" d="m487.17,402.12l-9.65,2.33c-26.79-4.61-32.42,20.57-32.42,20.57-1.4,14.37,8.18,23.16,3.79,37.73-4.39,14.57,3.19,26.35,3.19,26.35-.6,10.78,7.39,16.77,7.39,16.77,0,0,18.76,11.98,22.76,11.4,3.99-.57,9.78-2.62,9.78-2.62,5.19,5.39,21.56.8,21.56.8l13.52-5.45c5.52-2.23,9.01-7.73,8.68-13.67l-1.32-23.39c-.19-3.39-2.4-6.32-5.6-7.45l-.7-13.32c0-6.39-4.79-32.34-11.98-39.13-5.13-4.85-15.95-8.68-21.72-10.47-2.36-.73-4.85-.88-7.28-.45"/>
      </g>
      <g>
        <g id="pot">
          <path class="cls-39" d="m351.59,441.3c0,44.84,14.78,74.81,14.78,74.81,0,0,27.39,15.54,51.28,0,0,0,11.44-17.08,16.37-74.81h-82.42Z"/>
          <path class="cls-43" d="m418.36,449.02l-9.63,54.09c-.97,5.45-4.29,10.19-9.07,12.97-5.02,2.93-11.92,5.84-18.97,5.34,0,0,16.37,7.13,36.96-5.31,0,0,14.88-33.36,16.37-74.81,0,0-4.54,7.76-15.65,7.71Z"/>
          <path class="cls-9" d="m351.59,441.74c0,34.28,8.64,59.87,12.71,70.02,1.3,3.25,3.85,5.81,7.09,7.12,8.8,3.57,27.75,8.92,45.11-1.62.81-.49,1.46-1.21,1.91-2.05,2.64-4.97,11.44-24.74,15.6-73.48h-82.42Z"/>
          <ellipse class="cls-43" cx="392.8" cy="441.3" rx="41.21" ry="9.84"/>
          <path class="cls-37" d="m426.77,444.58c0,2.71-15.67,4.9-35.01,4.9s-35.01-2.19-35.01-4.9,15.67-7.12,35.01-7.12,35.01,4.41,35.01,7.12Z"/>
          <ellipse class="cls-9" cx="392.8" cy="441.3" rx="41.21" ry="9.84"/>
        </g>
        <g>
          <path id="stem" class="cls-24" d="m419.18,445.34s3.18-15.17,23.97-28.67l-4.09-1.9s-21.37,12.2-25.06,28.7c0,0-.01,1.87,5.18,1.87Z"/>
          <path id="leaf" class="cls-23" d="m435.26,410.06c.07-2.3,1.2-4.91,2.76-5.68.93-.46,3.85-.98,4.65-.33,3.45,2.81,6,3.35,6,3.35.33-2.32-2.2-3.95-2.2-3.95-2.17-5.65,4-4.87,4-4.87,7.24.48,17.04,27.73,17.04,27.73-6.59-7.73-24.33-9.63-24.33-9.63,0,0-8.13-.22-7.93-6.61Z"/>
          <path class="cls-50" d="m448.49,405.89s15.14,9,19.02,20.41c0,0-6.78-21.95-17.04-27.73,0,0-7.32.36-1.98,7.32Z"/>
          <path id="leaf-2" data-name="leaf" class="cls-31" d="m435.26,410.06c.07-2.3,1.2-4.91,2.76-5.68.93-.46,3.85-.98,4.65-.33,3.45,2.81,6,3.35,6,3.35.33-2.32-2.2-3.95-2.2-3.95-2.17-5.65,4-4.87,4-4.87,7.24.48,17.04,27.73,17.04,27.73-6.59-7.73-24.33-9.63-24.33-9.63,0,0-8.13-.22-7.93-6.61Z"/>
        </g>
        <g>
          <path class="cls-17" d="m414.99,408.11s5.64-9.57,9.19-13.72c1.56-1.83,4.13-9.19-4.6-14.92,0,0,6.86,4.66,8.99,4.8s4.8-16.39-4.53-27.65-19.05-2.6-18.52,2.07-.53,7.99-3.46,8.13-5.2-9.06-10.39-11.06-17.45,9.59-11.99,19.32,12.12,14.26,12.12,14.26c0,0,4.93-8.79,11.99-11.72,0,0-3.73,12.66-8.13,13.72,0,0,16.79,9.06,19.32,16.79Z"/>
          <path class="cls-49" d="m389.84,356.29s-11.58,13.04,5.01,28.64l-3.05,4.39s-13.18-12.28-13.5-17.83,5.13-15.71,11.53-15.2Z"/>
          <path class="cls-47" d="m405.89,365.38s-4.81,21.09,5.23,33.98,5.2,8.15,5.2,8.15l-1.33.6s-7.01-10.83-19.32-16.79l8.13-13.72s-4.5-7.29,2.09-12.22Z"/>
          <path class="cls-20" d="m414.99,408.11s5.64-9.57,9.19-13.72c1.56-1.83,4.13-9.19-4.6-14.92,0,0,6.86,4.66,8.99,4.8s4.8-16.39-4.53-27.65-19.05-2.6-18.52,2.07-.53,7.99-3.46,8.13-5.2-9.06-10.39-11.06-17.45,9.59-11.99,19.32,12.12,14.26,12.12,14.26c0,0,4.93-8.79,11.99-11.72,0,0-3.73,12.66-8.13,13.72,0,0,16.79,9.06,19.32,16.79Z"/>
          <path class="cls-15" d="m400.74,442.81s-3.98-51.65,1.97-74.61c.35-1.34-.78-2.6-2.15-2.41l-.87.12c-.69.09-1.24.63-1.34,1.32-.95,6.23-5.07,36.81-1.29,75.58,0,0,0,1.33,3.69,0Z"/>
        </g>
        <path class="cls-17" d="m370.05,381.13s9.51,51.8,16.18,64.21c0,0,3.62,1.08,4.14-2.47,0,0-10.16-18.33-17.55-70.92l-2.77,9.18Z"/>
        <g>
          <path id="big_leaf" class="cls-28" d="m302.68,399.86c.97-1.54,4.73-5.73,17.14-6.02.12,0,.22-.1.23-.22l1.01-13.16c.01-.14.13-.24.27-.22,1.24.18,6.47,1.55,2.37,11.6-.05.11,0,.24.1.3.63.35,2.92,1.38,5.64-.02.1-.05.15-.16.13-.26-.41-1.92-3.82-19.11,4.23-21.37s-1.54,17.3.8,21.39c.05.09.17.13.27.1l14.28-3.68s.07-.01.11,0c.56.14,5.95,1.06,6.24-14.82.3-16.75,5.98-9.42,4.94-5.09s-4.64,15.41-4.79,20.34,32.16-18.7,30.52-29.02c-1.64-10.32-.15-14.81-16.88-26.46-.02-.01-.03-.02-.05-.03-.41-.16-5.32-2.09-7.43-4.57-.09-.11-.25-.11-.35,0-1,1.11-6.04,6.49-9.4,6.08-2.14-.26-4.87,2.78-6.82,5.43-.17.23-.53,0-.4-.25,2.19-4.14,5.47-10.14,6.67-11.32.09-.09.09-.24,0-.33l-3.11-3.46c-.05-.06-.13-.09-.21-.08-1.2.19-10.84,1.66-20.22-.02-10.02-1.8-16.01-.3-20.05,3.74s-10.02,19-9.27,20.79,13.31-10.32,18.4-9.13,5.35,2.7,5.38,2.83c0,0,0,0,0,.02.03.21.59,5.09-8.23,3.88s-16.31,1.85-16.45,6.88c-.09,3-.13,4.87-.14,5.89,0,.26.33.36.48.15,1.26-1.84,5.33-6.16,16.15-7.06.19-.02.33.19.23.36-.55.92-2.65,3.37-10.29,6.19-8.51,3.14-6.37,9.09-5.7,10.52.07.15.27.18.39.05,1.15-1.3,6.46-7.06,10.7-7.66,2.48-.35,3.68-.76,4.25-1.07.2-.11.42.09.33.3-.52,1.17-2.33,3.58-8.62,6.98-9.03,4.88-7.37,11.52-3.28,31.36.04.21.32.27.43.09Z"/>
          <path class="cls-46" d="m342.28,389.67s6.58-2.31,9.18-15.49,8-11.15,8-11.15c0,0-4.43,1.01-5.06,13.26s-5.29,12.03-5.29,12.03c0,0-5.29.79-6.83,1.35Z"/>
          <path class="cls-46" d="m344.6,340.82s-9.42,8.39-12.39,17.08c-2.01,5.89-11.37,16.79-11.37,16.79,0,0,10.73-16.38,12.16-22.31,1.06-4.4,6.21-10.91,12.16-14.48l-.57,2.93Z"/>
          <path class="cls-46" d="m361.8,329.1s7.11,9.84,12.31,14.73c5.19,4.88,6,22.93-1.29,28.55s-15.65,11.99-15.65,11.99l-1.53,4.81s37.42-15.24,30.58-36.1c0,0,2.95-4.99-24.43-23.98Z"/>
          <path class="cls-46" d="m308.44,385.95c-.73.28.81-11.15,8.11-13.99,0,0-6.88,9.52-8.11,13.99Z"/>
          <path class="cls-4" d="m307.93,385.06s1.51-9,7.05-11.96"/>
          <path id="big_leaf-2" data-name="big_leaf" class="cls-30" d="m302.68,399.86c.97-1.54,4.73-5.73,17.14-6.02.12,0,.22-.1.23-.22l1.01-13.16c.01-.14.13-.24.27-.22,1.24.18,6.47,1.55,2.37,11.6-.05.11,0,.24.1.3.63.35,2.92,1.38,5.64-.02.1-.05.15-.16.13-.26-.41-1.92-3.82-19.11,4.23-21.37s-1.54,17.3.8,21.39c.05.09.17.13.27.1l14.28-3.68s.07-.01.11,0c.56.14,5.95,1.06,6.24-14.82.3-16.75,5.98-9.42,4.94-5.09-1.05,4.34-4.64,15.41-4.79,20.34s32.16-18.7,30.52-29.02-.15-14.81-16.88-26.46c-.02-.01-.03-.02-.05-.03-.41-.16-5.32-2.09-7.43-4.57-.09-.11-.25-.11-.35,0-1,1.11-6.04,6.49-9.4,6.08-2.14-.26-4.87,2.78-6.82,5.43-.17.23-.53,0-.4-.25,2.19-4.14,5.47-10.14,6.67-11.32.09-.09.09-.24,0-.33l-3.11-3.46c-.05-.06-.13-.09-.21-.08-1.2.19-10.84,1.66-20.22-.02-10.02-1.8-16.01-.3-20.05,3.74s-10.02,19-9.27,20.79,13.31-10.32,18.4-9.13,5.35,2.7,5.38,2.83c0,0,0,0,0,.02.03.21.59,5.09-8.23,3.88s-16.31,1.85-16.45,6.88c-.09,3-.13,4.87-.14,5.89,0,.26.33.36.48.15,1.26-1.84,5.33-6.16,16.15-7.06.19-.02.33.19.23.36-.55.92-2.65,3.37-10.29,6.19-8.51,3.14-6.37,9.09-5.7,10.52.07.15.27.18.39.05,1.15-1.3,6.46-7.06,10.7-7.66,2.48-.35,3.68-.76,4.25-1.07.2-.11.42.09.33.3-.52,1.17-2.33,3.58-8.62,6.98-9.03,4.88-7.37,11.52-3.28,31.36.04.21.32.27.43.09Z"/>
          <path class="cls-5" d="m331.06,360.67c2.01-3.11,3.94-11.68,6.83-12.58"/>
        </g>
        <g>
          <path class="cls-10" d="m389.95,416.62s4.24,19.4,2.85,28.16c0,0,2.2,2.39,4.42,1.63s-2.87-30.3-5.46-37.07-1.81,7.27-1.81,7.27Z"/>
          <path class="cls-12" d="m374.14,424.87s.85,3.89,3.67,5.96c0,0,4.89-7.15,7.62-8.94l-2.45-8.37s1.04-1.04,5.46,4.42c0,0,12.7-9.69,6.02-18.82,0,0-5.86-4.02-15.63,4.25s-4.69,21.5-4.69,21.5Z"/>
        </g>
        <g>
          <path class="cls-13" d="m431.11,379.59s-17.25,24.06-25.23,65.75c0,0,4.05,1.87,4.96,0,0,0,7.91-42.5,23.8-62.35l-3.54-3.39Z"/>
          <path class="cls-28" d="m467.94,368.86s7.79-17.11-.53-21.65c0,0-13.55-1.58-13.49-4.42.06-2.84,13.38-.82,16.66,3.85,0,0-2.52-16.72-16.79-18.05-14.26-1.33-15.34,8.58-15.34,8.58,0,0-2.78-.19-4.54,1.89,0,0-8.14-7.19-14.39-4.73-6.25,2.46-11.3,7.07-12.24,19.25-.95,12.18,11.42,26.63,15.34,25.69,0,0,.32-13.76,13.06-16.53,0,0-2.97,6.18-3.53,11.3-.57,5.11-4.67,7.01-4.67,7.01l10.22,5.93s-1.09-10.85,1.54-14.58c1.25-1.77,3.13-3.03,4.33-1.14s-3.19,7.32-2.34,16.42c0,0,16.28,8.32,21.56,14.61,0,0,.14-13.86,3.43-21.14s-2-9.43-5.43-12.86c-3.43-3.43-7.43-7.43-5.86-15.14,0,0,6.71-4.14,13,15.71Zm-49.52-9.59c.55-7.93,16.23-7.57,16.23-7.57,0,0-16.78,15.5-16.23,7.57Z"/>
          <path id="detailsa" class="cls-6" d="m453.85,376.25s.92,4.84,2.88,6.69"/>
          <path class="cls-46" d="m434.73,364.93s.57,6.29-.08,10.08c-.65,3.78-3.07,8.41-3.07,8.41l-3.38-2.55s4.14-4.73,4.21-7.31,2.32-8.63,2.32-8.63Z"/>
          <path class="cls-46" d="m463.24,394.87s.23-1.8.41-4.5c.46-6.82.6-19.38-4.1-23.33,0,0,7.91,6.45,8.05,8.21s-4.36,16.53-4.36,19.62Z"/>
          <g>
            <path class="cls-6" d="m438,337.64s3.28-.67,3.51,6.13,5.54,8.88,5.54,8.88"/>
            <path class="cls-6" d="m449.46,359s1.61,5.07,2.08,10.15"/>
          </g>
          <path class="cls-46" d="m465.35,343.14s1.48-6.61-11.55-14.54c0,0,10.99,0,16.06,13.93v3.05l-4.5-2.44Z"/>
          <path class="cls-46" d="m457.23,345.14s13.75,6.52,12.14,18.59c0,0,3.45-11.21,1.45-13.54s-3.53-3.66-6.42-3.66-7.18-1.4-7.18-1.4Z"/>
          <path class="cls-46" d="m443.92,372.88s-.72,12.84,5.12,18.17l-8.16-3.3,3.04-14.87Z"/>
          <path class="cls-30" d="m467.94,368.86s7.79-17.11-.53-21.65c0,0-13.55-1.58-13.49-4.42.06-2.84,13.38-.82,16.66,3.85,0,0-2.52-16.72-16.79-18.05-14.26-1.33-15.34,8.58-15.34,8.58,0,0-2.78-.19-4.54,1.89,0,0-8.14-7.19-14.39-4.73-6.25,2.46-11.3,7.07-12.24,19.25-.95,12.18,11.42,26.63,15.34,25.69,0,0,.32-13.76,13.06-16.53,0,0-2.97,6.18-3.53,11.3-.57,5.11-4.67,7.01-4.67,7.01l10.22,5.93s-1.09-10.85,1.54-14.58c1.25-1.77,3.13-3.03,4.33-1.14s-3.19,7.32-2.34,16.42c0,0,16.28,8.32,21.56,14.61,0,0,.14-13.86,3.43-21.14s-2-9.43-5.43-12.86c-3.43-3.43-7.43-7.43-5.86-15.14,0,0,6.71-4.14,13,15.71Zm-49.52-9.59c.55-7.93,16.23-7.57,16.23-7.57,0,0-16.78,15.5-16.23,7.57Z"/>
        </g>
        <g>
          <path class="cls-26" d="m362.46,430.05s5.2,13.61,6.65,15.29,5,.91,5,.91c0,0-7.36-12.51-7.89-19.35l-3.75,3.16Z"/>
          <path class="cls-10" d="m374.51,401.21c-13.1-3.12-18.55,2.63-20.3,5.25l2-3.56c-1.29-6.16-19.09-16.31-28.04-4.37-8.95,11.93-1.59,23.46-1.59,23.46,5.67-2.68,12.08-2.52,12.08-2.52l-1.34,2.32c-4.57.4-8.68,5.62-8.68,5.62,5.6,4.83,8.68,18.84,8.68,18.84,0,0,3.28-2.59,10.54-6.86s7.95-15.01,7.95-15.01c3.18-.67,2.68,10.84,2.68,10.84,14.32-1.79,32.71-30.03,16.01-34Zm-42.36,9.2s4.51-6.76,10.95-2.9c4.86,2.91-11.6,5.16-10.95,2.9Z"/>
          <path class="cls-4" d="m339.32,433.7s1.49-4.63,3.51-5.74"/>
          <path class="cls-4" d="m350.87,411.33s-1.75,1.75-1.83,6.75c0,0-.29,2.56-1.6,3.95"/>
          <path class="cls-44" d="m354.07,430.08s-14.29,9.02-14.15,14.3c0,0,12.94-4.68,14.15-14.3Z"/>
          <path class="cls-44" d="m376.01,402.29s3.23,19.3-17.62,27.77l.11,5.16s33.6-12.9,17.51-32.92Z"/>
          <path class="cls-18" d="m374.51,401.21c-13.1-3.12-18.55,2.63-20.3,5.25l2-3.56c-1.29-6.16-19.09-16.31-28.04-4.37-8.95,11.93-1.59,23.46-1.59,23.46,5.67-2.68,12.08-2.52,12.08-2.52l-1.34,2.32c-4.57.4-8.68,5.62-8.68,5.62,5.6,4.83,8.68,18.84,8.68,18.84,0,0,3.28-2.59,10.54-6.86s7.95-15.01,7.95-15.01c3.18-.67,2.68,10.84,2.68,10.84,14.32-1.79,32.71-30.03,16.01-34Zm-42.36,9.2s4.51-6.76,10.95-2.9c4.86,2.91-11.6,5.16-10.95,2.9Z"/>
        </g>
      </g>
    </g>
  </g>
</svg>