<svg width="92" height="92" viewBox="0 0 92 92" fill="none" xmlns="http://www.w3.org/2000/svg">
<circle cx="46" cy="46" r="42" stroke="#452707" stroke-width="8"/>
<path d="M39.3047 24.3359C39.3047 22.8255 39.8906 21.5495 41.0625 20.5078C42.2604 19.4661 43.5495 18.9453 44.9297 18.9453H46.1797C46.5703 19.0234 46.8958 19.0625 47.1562 19.0625C48.4062 19.0625 49.513 19.6224 50.4766 20.7422C51.4401 21.862 51.9219 22.9297 51.9219 23.9453V24.9609C51.8698 25.2214 51.8438 25.4167 51.8438 25.5469C51.8438 26.6406 51.2318 27.7083 50.0078 28.75C48.7839 29.7917 47.4297 30.3125 45.9453 30.3125H44.7344C43.276 30.3125 42.013 29.8568 40.9453 28.9453C39.9036 28.0078 39.3828 26.9401 39.3828 25.7422L39.3047 25.3516V24.3359ZM46.7266 75.1562H43.0156C39.5521 75.1562 37.4688 75.0651 36.7656 74.8828C36.0885 74.6745 35.75 74.1146 35.75 73.2031C35.75 72.2656 36.401 71.1458 37.7031 69.8438C39.0052 68.5417 39.8255 67.2396 40.1641 65.9375C40.5026 64.6094 40.6719 61.1849 40.6719 55.6641C40.6719 50.1172 40.5286 46.849 40.2422 45.8594C39.9557 44.8698 39.0573 44.0234 37.5469 43.3203C36.0625 42.5911 35.3203 41.7318 35.3203 40.7422C35.3203 39.7266 36.0104 38.9844 37.3906 38.5156C40.5156 37.474 43.9661 36.9531 47.7422 36.9531H48.3281C49.8385 36.9531 50.7109 37.5911 50.9453 38.8672C51.0755 39.5964 51.1406 43.9714 51.1406 51.9922C51.1406 59.987 51.3099 64.6745 51.6484 66.0547C52.013 67.4089 52.9245 68.8542 54.3828 70.3906C55.8411 71.9271 56.5703 72.8906 56.5703 73.2812V73.75C56.5703 74.6875 53.2891 75.1562 46.7266 75.1562Z" fill="#452707"/>
</svg>
