<?xml version="1.0" encoding="UTF-8"?>
<svg id="Layer_2" data-name="Layer 2" xmlns="http://www.w3.org/2000/svg" viewBox="0 0 103.07 103.07">
  <defs>
    <style>
      .cls-1 {
        fill: none;
        stroke: #76533b;
        stroke-linecap: round;
        stroke-linejoin: round;
        stroke-width: 3px;
      }

      .cls-2 {
        fill: #92a09b;
        opacity: .57;
      }

      .cls-2, .cls-3, .cls-4, .cls-5, .cls-6 {
        stroke-width: 0px;
      }

      .cls-3 {
        fill: #959470;
      }

      .cls-4 {
        fill: #a2a07c;
      }

      .cls-5 {
        fill: #a3aeac;
      }

      .cls-6 {
        fill: #b2bab5;
      }
    </style>
  </defs>
  <g id="Layer_2-2" data-name="Layer 2">
    <g id="misty">
      <path id="sky" class="cls-6" d="m91.57,101.57H11.5c-5.52,0-10-4.48-10-10V11.5c0-.67.07-4.21,2.93-7.07,1.81-1.81,4.31-2.93,7.07-2.93h80.08c5.52,0,10,4.48,10,10v80.08c0,5.52-4.48,10-10,10Z"/>
      <path id="cloud_far" class="cls-5" d="m99.59,30.23s-6.49,1.12-6.71,8.72c0,0-2.8-.34-6.49,3.24,0,0-10.74-9.62-21.14,0,0,0-5.59-6.26-13.08,0,0,0-5.59-4.7-10.18,1.9,0,0-6.82-14.09-18.34-1.79,0,0-.89-5.59-5.59-4.14,0,0-.56-1.68-3.47-.45,0,0-1.29-8.95-12.86-5.7l-.23,24.75c-.05,5.44,4.35,9.88,9.79,9.88h79.99c5.66,0,10.27-4.54,10.37-10.2l.44-26.22h-2.52Z"/>
      <path id="hill_far" class="cls-3" d="m1.84,51.92c6.84-.56,14.67-.59,23.24.48,28.2,3.52,48.63,16.98,59.53,25.63l-1.11,16.24-81.66.64v-42.98Z"/>
      <path id="cloud" class="cls-2" d="m100.46,56.61s-10.85.34-16.1,11.07c0,0-8.05-3.47-13.31,2.24,0,0-3.02-4.03-8.95-2.24,0,0-.89-4.58-6.49-5.26s-7.49,5.93-7.49,5.93c0,0-3.69-7.16-13.2-.34,0,0-1.12-5.26-6.26-5.93s-7.83,1.23-9.06,3.02c0,0-3.24-2.35-6.26-.56,0,0-1.79-10.85-10.96-9.17v17.83c0,5.13,4.02,18.02,9.15,18.02h80.12c4.31,0,8.8-11.86,8.8-16.17v-18.45Z"/>
      <path id="hill" class="cls-4" d="m2.33,93.26c.08,4.59,3.84,8.25,8.43,8.2,25.87-.28,55.81-.34,80.69-.67,5.57-.16,6.48-.7,9.07-4.3.05-13.11.27-28.6.32-41.7-13.69-.96-23.51,3.71-30.56,6.21-28.56,10.11-42.66,21.81-60.17,17.51-3.73-.92-6.41-2.85-8.12-3.98l.33,18.73Z"/>
      <path id="cloud-2" data-name="cloud" class="cls-2" d="m100.85,75.06s-10.85.34-16.1,11.07c0,0-8.05-3.47-13.31,2.24,0,0-3.02-4.03-8.95-2.24,0,0-.89-4.58-6.49-5.26s-7.49,5.93-7.49,5.93c0,0-3.69-7.16-13.2-.34,0,0-1.12-5.26-6.26-5.93s-7.83,1.23-9.06,3.02c0,0-3.24-2.35-6.26-.56,0,0-1.79-10.85-10.96-9.17v17.83c0,5.13,4.16,9.3,9.3,9.3h79.97c4.31,0,8.8-3.14,8.8-7.45v-18.45Z"/>
      <path id="frame" class="cls-1" d="m91.57,101.57H11.5c-5.52,0-10-4.48-10-10V11.5c0-.67.07-4.21,2.93-7.07,1.81-1.81,4.31-2.93,7.07-2.93h80.08c5.52,0,10,4.48,10,10v80.08c0,5.52-4.48,10-10,10Z"/>
    </g>
  </g>
</svg>