<?xml version="1.0" encoding="UTF-8"?>
<svg id="Layer_2" data-name="Layer 2" xmlns="http://www.w3.org/2000/svg" viewBox="0 0 175.65 202.48">
  <defs>
    <style>
      .cls-1 {
        fill: #9d7c4f;
      }

      .cls-1, .cls-2, .cls-3, .cls-4, .cls-5, .cls-6, .cls-7, .cls-8, .cls-9 {
        stroke-miterlimit: 10;
      }

      .cls-1, .cls-2, .cls-3, .cls-4, .cls-8, .cls-9, .cls-10, .cls-11, .cls-12, .cls-13, .cls-14, .cls-15, .cls-16 {
        stroke-width: 2px;
      }

      .cls-1, .cls-7, .cls-9 {
        stroke: #8b6a3d;
      }

      .cls-2 {
        stroke: #8b723d;
      }

      .cls-2, .cls-3, .cls-12 {
        fill: #af935e;
      }

      .cls-3, .cls-14, .cls-16 {
        stroke: #755931;
      }

      .cls-4, .cls-6, .cls-8 {
        stroke: #86683b;
      }

      .cls-4, .cls-11 {
        fill: #a68757;
      }

      .cls-5, .cls-6, .cls-7, .cls-8, .cls-9, .cls-17, .cls-15, .cls-16 {
        fill: none;
      }

      .cls-5, .cls-6, .cls-7, .cls-17 {
        stroke-linecap: round;
      }

      .cls-5, .cls-10, .cls-15 {
        stroke: #826337;
      }

      .cls-17 {
        stroke: #895943;
        stroke-width: 4px;
      }

      .cls-17, .cls-10, .cls-11, .cls-12, .cls-13, .cls-14, .cls-15, .cls-16 {
        stroke-linejoin: round;
      }

      .cls-10 {
        fill: #b08e59;
      }

      .cls-11 {
        stroke: #87683b;
      }

      .cls-12 {
        stroke: #7c6435;
      }

      .cls-13 {
        fill: #937a46;
        stroke: #6c5129;
      }

      .cls-14, .cls-18 {
        fill: #937445;
      }

      .cls-19 {
        fill: #4b1806;
      }

      .cls-19, .cls-20, .cls-21, .cls-22, .cls-18, .cls-23, .cls-24, .cls-25 {
        stroke-width: 0px;
      }

      .cls-20 {
        fill: #c59571;
      }

      .cls-21 {
        fill: #ae785b;
      }

      .cls-22 {
        fill: #a8844f;
      }

      .cls-23 {
        fill: #86673c;
      }

      .cls-24 {
        fill: #7f6339;
      }

      .cls-25 {
        fill: #997848;
      }
    </style>
  </defs>
  <g id="plant">
    <g id="pot">
      <path class="cls-20" d="m54.98,118.32c0,44.84,14.78,74.81,14.78,74.81,0,0,27.39,15.54,51.28,0,0,0,11.44-17.08,16.37-74.81H54.98Z"/>
      <path class="cls-21" d="m121.75,126.04l-9.63,54.09c-.97,5.45-4.29,10.19-9.07,12.97-5.02,2.93-11.92,5.84-18.97,5.34,0,0,16.37,7.13,36.96-5.31,0,0,14.88-33.36,16.37-74.81,0,0-4.54,7.76-15.65,7.71Z"/>
      <path class="cls-17" d="m54.98,118.76c0,34.28,8.64,59.87,12.71,70.02,1.3,3.25,3.85,5.81,7.09,7.12,8.8,3.57,27.75,8.92,45.11-1.62.81-.49,1.46-1.21,1.91-2.05,2.64-4.97,11.44-24.74,15.6-73.48H54.98Z"/>
      <ellipse class="cls-21" cx="96.19" cy="118.32" rx="41.21" ry="9.84"/>
      <path class="cls-19" d="m130.16,121.6c0,2.71-15.67,4.9-35.01,4.9s-35.01-2.19-35.01-4.9,15.67-7.12,35.01-7.12,35.01,4.41,35.01,7.12Z"/>
      <ellipse class="cls-17" cx="96.19" cy="118.32" rx="41.21" ry="9.84"/>
    </g>
    <g>
      <path id="stem" class="cls-2" d="m122.57,122.36s3.18-15.17,23.97-28.67l-4.09-1.9s-21.37,12.2-25.06,28.7c0,0-.01,1.87,5.18,1.87Z"/>
      <path id="leaf" class="cls-1" d="m138.65,87.08c.07-2.3,1.2-4.91,2.76-5.68.93-.46,3.85-.98,4.65-.33,3.45,2.81,6,3.35,6,3.35.33-2.32-2.2-3.95-2.2-3.95-2.17-5.65,4-4.87,4-4.87,7.24.48,17.04,27.73,17.04,27.73-6.59-7.73-24.33-9.63-24.33-9.63,0,0-8.13-.22-7.93-6.61Z"/>
      <path class="cls-25" d="m151.88,82.91s15.14,9,19.02,20.41c0,0-6.78-21.95-17.04-27.73,0,0-7.32.36-1.98,7.32Z"/>
      <path id="leaf-2" data-name="leaf" class="cls-9" d="m138.65,87.08c.07-2.3,1.2-4.91,2.76-5.68.93-.46,3.85-.98,4.65-.33,3.45,2.81,6,3.35,6,3.35.33-2.32-2.2-3.95-2.2-3.95-2.17-5.65,4-4.87,4-4.87,7.24.48,17.04,27.73,17.04,27.73-6.59-7.73-24.33-9.63-24.33-9.63,0,0-8.13-.22-7.93-6.61Z"/>
    </g>
    <g>
      <path class="cls-14" d="m118.37,85.12s5.64-9.57,9.19-13.72c1.56-1.83,4.13-9.19-4.6-14.92,0,0,6.86,4.66,8.99,4.8s4.8-16.39-4.53-27.65-19.05-2.6-18.52,2.07-.53,7.99-3.46,8.13-5.2-9.06-10.39-11.06-17.45,9.59-11.99,19.32,12.12,14.26,12.12,14.26c0,0,4.93-8.79,11.99-11.72,0,0-3.73,12.66-8.13,13.72,0,0,16.79,9.06,19.32,16.79Z"/>
      <path class="cls-24" d="m93.23,33.31s-11.58,13.04,5.01,28.64l-3.05,4.39s-13.18-12.28-13.5-17.83,5.13-15.71,11.53-15.2Z"/>
      <path class="cls-23" d="m109.28,42.4s-4.81,21.09,5.23,33.98,5.2,8.15,5.2,8.15l-1.33.6s-7.01-10.83-19.32-16.79l8.13-13.72s-4.5-7.29,2.09-12.22Z"/>
      <path class="cls-16" d="m118.37,85.12s5.64-9.57,9.19-13.72c1.56-1.83,4.13-9.19-4.6-14.92,0,0,6.86,4.66,8.99,4.8s4.8-16.39-4.53-27.65-19.05-2.6-18.52,2.07-.53,7.99-3.46,8.13-5.2-9.06-10.39-11.06-17.45,9.59-11.99,19.32,12.12,14.26,12.12,14.26c0,0,4.93-8.79,11.99-11.72,0,0-3.73,12.66-8.13,13.72,0,0,16.79,9.06,19.32,16.79Z"/>
      <path class="cls-13" d="m104.13,119.83s-3.98-51.65,1.97-74.61c.35-1.34-.78-2.6-2.15-2.41l-.87.12c-.69.09-1.24.63-1.34,1.32-.95,6.23-5.07,36.81-1.29,75.58,0,0,0,1.33,3.69,0Z"/>
    </g>
    <path class="cls-14" d="m73.43,58.15s9.51,51.8,16.18,64.21c0,0,3.62,1.08,4.14-2.47,0,0-10.16-18.33-17.55-70.92l-2.77,9.18Z"/>
    <g>
      <path id="big_leaf" class="cls-4" d="m6.07,76.88c.97-1.54,4.73-5.73,17.14-6.02.12,0,.22-.1.23-.22l1.01-13.16c.01-.14.13-.24.27-.22,1.24.18,6.47,1.55,2.37,11.6-.05.11,0,.24.1.3.63.35,2.92,1.38,5.64-.02.1-.05.15-.16.13-.26-.41-1.92-3.82-19.11,4.23-21.37s-1.54,17.3.8,21.39c.05.09.17.13.27.1l14.28-3.68s.07-.01.11,0c.56.14,5.95,1.06,6.24-14.82.3-16.75,5.98-9.42,4.94-5.09s-4.64,15.41-4.79,20.34,32.16-18.7,30.52-29.02-.15-14.81-16.88-26.46c-.02-.01-.03-.02-.05-.03-.41-.16-5.32-2.09-7.43-4.57-.09-.11-.25-.11-.35,0-1,1.11-6.04,6.49-9.4,6.08-2.14-.26-4.87,2.78-6.82,5.43-.17.23-.53,0-.4-.25,2.19-4.14,5.47-10.14,6.67-11.32.09-.09.09-.24,0-.33l-3.11-3.46c-.05-.06-.13-.09-.21-.08-1.2.19-10.84,1.66-20.22-.02C21.33-.04,15.35,1.45,11.31,5.49S1.29,24.49,2.04,26.28s13.31-10.32,18.4-9.13,5.35,2.7,5.38,2.83c0,0,0,0,0,.02.03.21.59,5.09-8.23,3.88S1.29,25.74,1.14,30.77c-.09,3-.13,4.87-.14,5.89,0,.26.33.36.48.15,1.26-1.84,5.33-6.16,16.15-7.06.19-.02.33.19.23.36-.55.92-2.65,3.37-10.29,6.19-8.51,3.14-6.37,9.09-5.7,10.52.07.15.27.18.39.05,1.15-1.3,6.46-7.06,10.7-7.66,2.48-.35,3.68-.76,4.25-1.07.2-.11.42.09.33.3-.52,1.17-2.33,3.58-8.62,6.98C-.11,50.31,1.55,56.95,5.64,76.79c.04.21.32.27.43.09Z"/>
      <path class="cls-18" d="m45.67,66.69s6.58-2.31,9.18-15.49,8-11.15,8-11.15c0,0-4.43,1.01-5.06,13.26s-5.29,12.03-5.29,12.03c0,0-5.29.79-6.83,1.35Z"/>
      <path class="cls-18" d="m47.98,17.84s-9.42,8.39-12.39,17.08c-2.01,5.89-11.37,16.79-11.37,16.79,0,0,10.73-16.38,12.16-22.31,1.06-4.4,6.21-10.91,12.16-14.48l-.57,2.93Z"/>
      <path class="cls-18" d="m65.18,6.12s7.11,9.84,12.31,14.73,6,22.93-1.29,28.55-15.65,11.99-15.65,11.99l-1.53,4.81s37.42-15.24,30.58-36.1c0,0,2.95-4.99-24.43-23.98Z"/>
      <path class="cls-18" d="m11.83,62.97c-.73.28.81-11.15,8.11-13.99,0,0-6.88,9.52-8.11,13.99Z"/>
      <path class="cls-5" d="m11.32,62.08s1.51-9,7.05-11.96"/>
      <path id="big_leaf-2" data-name="big_leaf" class="cls-8" d="m6.07,76.88c.97-1.54,4.73-5.73,17.14-6.02.12,0,.22-.1.23-.22l1.01-13.16c.01-.14.13-.24.27-.22,1.24.18,6.47,1.55,2.37,11.6-.05.11,0,.24.1.3.63.35,2.92,1.38,5.64-.02.1-.05.15-.16.13-.26-.41-1.92-3.82-19.11,4.23-21.37s-1.54,17.3.8,21.39c.05.09.17.13.27.1l14.28-3.68s.07-.01.11,0c.56.14,5.95,1.06,6.24-14.82.3-16.75,5.98-9.42,4.94-5.09s-4.64,15.41-4.79,20.34,32.16-18.7,30.52-29.02-.15-14.81-16.88-26.46c-.02-.01-.03-.02-.05-.03-.41-.16-5.32-2.09-7.43-4.57-.09-.11-.25-.11-.35,0-1,1.11-6.04,6.49-9.4,6.08-2.14-.26-4.87,2.78-6.82,5.43-.17.23-.53,0-.4-.25,2.19-4.14,5.47-10.14,6.67-11.32.09-.09.09-.24,0-.33l-3.11-3.46c-.05-.06-.13-.09-.21-.08-1.2.19-10.84,1.66-20.22-.02C21.33-.04,15.35,1.45,11.31,5.49S1.29,24.49,2.04,26.28s13.31-10.32,18.4-9.13,5.35,2.7,5.38,2.83c0,0,0,0,0,.02.03.21.59,5.09-8.23,3.88S1.29,25.74,1.14,30.77c-.09,3-.13,4.87-.14,5.89,0,.26.33.36.48.15,1.26-1.84,5.33-6.16,16.15-7.06.19-.02.33.19.23.36-.55.92-2.65,3.37-10.29,6.19-8.51,3.14-6.37,9.09-5.7,10.52.07.15.27.18.39.05,1.15-1.3,6.46-7.06,10.7-7.66,2.48-.35,3.68-.76,4.25-1.07.2-.11.42.09.33.3-.52,1.17-2.33,3.58-8.62,6.98C-.11,50.31,1.55,56.95,5.64,76.79c.04.21.32.27.43.09Z"/>
      <path class="cls-6" d="m34.45,37.68c2.01-3.11,3.94-11.68,6.83-12.58"/>
    </g>
    <g>
      <path class="cls-10" d="m93.34,93.64s4.24,19.4,2.85,28.16c0,0,2.2,2.39,4.42,1.63s-2.87-30.3-5.46-37.07-1.81,7.27-1.81,7.27Z"/>
      <path class="cls-11" d="m77.52,101.88s.85,3.89,3.67,5.96c0,0,4.89-7.15,7.62-8.94l-2.45-8.37s1.04-1.04,5.46,4.42c0,0,12.7-9.69,6.02-18.82,0,0-5.86-4.02-15.63,4.25s-4.69,21.5-4.69,21.5Z"/>
    </g>
    <g>
      <path class="cls-12" d="m134.5,56.61s-17.25,24.06-25.23,65.75c0,0,4.05,1.87,4.96,0,0,0,7.91-42.5,23.8-62.35l-3.54-3.39Z"/>
      <path class="cls-4" d="m171.33,45.88s7.79-17.11-.53-21.65c0,0-13.55-1.58-13.49-4.42.06-2.84,13.38-.82,16.66,3.85,0,0-2.52-16.72-16.79-18.05-14.26-1.33-15.34,8.58-15.34,8.58,0,0-2.78-.19-4.54,1.89,0,0-8.14-7.19-14.39-4.73-6.25,2.46-11.3,7.07-12.24,19.25-.95,12.18,11.42,26.63,15.34,25.69,0,0,.32-13.76,13.06-16.53,0,0-2.97,6.18-3.53,11.3-.57,5.11-4.67,7.01-4.67,7.01l10.22,5.93s-1.09-10.85,1.54-14.58c1.25-1.77,3.13-3.03,4.33-1.14s-3.19,7.32-2.34,16.42c0,0,16.28,8.32,21.56,14.61,0,0,.14-13.86,3.43-21.14s-2-9.43-5.43-12.86c-3.43-3.43-7.43-7.43-5.86-15.14,0,0,6.71-4.14,13,15.71Zm-49.52-9.59c.55-7.93,16.23-7.57,16.23-7.57,0,0-16.78,15.5-16.23,7.57Z"/>
      <path id="detailsa" class="cls-7" d="m157.24,53.27s.92,4.84,2.88,6.69"/>
      <path class="cls-18" d="m138.12,41.95s.57,6.29-.08,10.08-3.07,8.41-3.07,8.41l-3.38-2.55s4.14-4.73,4.21-7.31,2.32-8.63,2.32-8.63Z"/>
      <path class="cls-18" d="m166.63,71.89s.23-1.8.41-4.5c.46-6.82.6-19.38-4.1-23.33,0,0,7.91,6.45,8.05,8.21s-4.36,16.53-4.36,19.62Z"/>
      <g>
        <path class="cls-7" d="m141.39,14.66s3.28-.67,3.51,6.13,5.54,8.88,5.54,8.88"/>
        <path class="cls-7" d="m152.85,36.02s1.61,5.07,2.08,10.15"/>
      </g>
      <path class="cls-18" d="m168.74,20.16s1.48-6.61-11.55-14.54c0,0,10.99,0,16.06,13.93v3.05l-4.5-2.44Z"/>
      <path class="cls-18" d="m160.62,22.16s13.75,6.52,12.14,18.59c0,0,3.45-11.21,1.45-13.54s-3.53-3.66-6.42-3.66-7.18-1.4-7.18-1.4Z"/>
      <path class="cls-18" d="m147.31,49.89s-.72,12.84,5.12,18.17l-8.16-3.3,3.04-14.87Z"/>
      <path class="cls-8" d="m171.33,45.88s7.79-17.11-.53-21.65c0,0-13.55-1.58-13.49-4.42.06-2.84,13.38-.82,16.66,3.85,0,0-2.52-16.72-16.79-18.05-14.26-1.33-15.34,8.58-15.34,8.58,0,0-2.78-.19-4.54,1.89,0,0-8.14-7.19-14.39-4.73-6.25,2.46-11.3,7.07-12.24,19.25-.95,12.18,11.42,26.63,15.34,25.69,0,0,.32-13.76,13.06-16.53,0,0-2.97,6.18-3.53,11.3-.57,5.11-4.67,7.01-4.67,7.01l10.22,5.93s-1.09-10.85,1.54-14.58c1.25-1.77,3.13-3.03,4.33-1.14s-3.19,7.32-2.34,16.42c0,0,16.28,8.32,21.56,14.61,0,0,.14-13.86,3.43-21.14s-2-9.43-5.43-12.86c-3.43-3.43-7.43-7.43-5.86-15.14,0,0,6.71-4.14,13,15.71Zm-49.52-9.59c.55-7.93,16.23-7.57,16.23-7.57,0,0-16.78,15.5-16.23,7.57Z"/>
    </g>
    <g>
      <path class="cls-3" d="m65.85,107.07s5.2,13.61,6.65,15.29,5,.91,5,.91c0,0-7.36-12.51-7.89-19.35l-3.75,3.16Z"/>
      <path class="cls-10" d="m77.9,78.23c-13.1-3.12-18.55,2.63-20.3,5.25l2-3.56c-1.29-6.16-19.09-16.31-28.04-4.37-8.95,11.93-1.59,23.46-1.59,23.46,5.67-2.68,12.08-2.52,12.08-2.52l-1.34,2.32c-4.57.4-8.68,5.62-8.68,5.62,5.6,4.83,8.68,18.84,8.68,18.84,0,0,3.28-2.59,10.54-6.86s7.95-15.01,7.95-15.01c3.18-.67,2.68,10.84,2.68,10.84,14.32-1.79,32.71-30.03,16.01-34Zm-42.36,9.2s4.51-6.76,10.95-2.9c4.86,2.91-11.6,5.16-10.95,2.9Z"/>
      <path class="cls-5" d="m42.71,110.72s1.49-4.63,3.51-5.74"/>
      <path class="cls-5" d="m54.26,88.35s-1.75,1.75-1.83,6.75c0,0-.29,2.56-1.6,3.95"/>
      <path class="cls-22" d="m57.46,107.1s-14.29,9.02-14.15,14.3c0,0,12.94-4.68,14.15-14.3Z"/>
      <path class="cls-22" d="m79.4,79.31s3.23,19.3-17.62,27.77l.11,5.16s33.6-12.9,17.51-32.92Z"/>
      <path class="cls-15" d="m77.9,78.23c-13.1-3.12-18.55,2.63-20.3,5.25l2-3.56c-1.29-6.16-19.09-16.31-28.04-4.37-8.95,11.93-1.59,23.46-1.59,23.46,5.67-2.68,12.08-2.52,12.08-2.52l-1.34,2.32c-4.57.4-8.68,5.62-8.68,5.62,5.6,4.83,8.68,18.84,8.68,18.84,0,0,3.28-2.59,10.54-6.86s7.95-15.01,7.95-15.01c3.18-.67,2.68,10.84,2.68,10.84,14.32-1.79,32.71-30.03,16.01-34Zm-42.36,9.2s4.51-6.76,10.95-2.9c4.86,2.91-11.6,5.16-10.95,2.9Z"/>
    </g>
  </g>
</svg>