<svg width="50" height="48" viewBox="0 0 50 48" fill="none" xmlns="http://www.w3.org/2000/svg">
<path fill-rule="evenodd" clip-rule="evenodd" d="M48.398 30.4212C48.2358 30.5822 48.0571 30.7432 47.8628 30.9042C46.8462 31.795 45.6839 32.2242 44.3757 32.192L40.1587 32.1595L44.3757 32.192C45.6839 32.2242 46.8462 31.795 47.8628 30.9042C48.0574 30.7432 48.2358 30.5822 48.398 30.4212L41.1967 41.7541C41.0131 42.0329 40.7426 42.312 40.3858 42.5912C39.6614 43.1491 38.8719 43.4228 38.0178 43.4121L31.9518 43.3316L31.8707 48L25.9183 37.7296L31.9031 26.7348L31.7737 32.0954L40.159 32.1595L33.6065 20.8431L44.1165 14.8225L49.4526 24.0787C49.6579 24.5185 49.8039 24.9696 49.8905 25.4309C50.1825 26.9332 49.8905 28.3124 49.0147 29.5681C48.8739 29.8256 48.6848 30.0887 48.447 30.3568C48.425 30.3781 48.4091 30.4 48.398 30.4212ZM14.581 1.39695C15.7271 0.377316 17.0681 -0.0840468 18.6034 0.0125399L19.5441 0.173518L33.152 0.318397L34.3036 0.575962C35.1577 0.897917 35.7957 1.42367 36.2171 2.15354L39.2987 7.35313L43.3701 5.00285L37.5957 15.3698L25.0097 15.9815L29.7132 13.3254L25.4638 6.16189L19.0572 17.6074L8.41743 11.7961L13.64 2.4594C13.9105 2.07306 14.2242 1.7189 14.581 1.39695ZM9.76395 31.7413H22.8853L22.9015 43.7985H12.7158C12.1212 43.8307 11.4614 43.718 10.7371 43.4604C9.29911 42.9669 8.25005 42.0329 7.59058 40.6594C7.43909 40.4019 7.30933 40.1066 7.20131 39.774C7.12573 39.538 7.06086 39.2856 7.00669 39.0174C6.74718 37.7081 6.95251 36.5007 7.62301 35.3954L9.76395 31.7413L7.62301 35.3958C6.95251 36.501 6.74718 37.7084 7.00669 39.0178C7.06086 39.286 7.12573 39.538 7.20131 39.7744L0.810959 27.8459C0.659472 27.5452 0.551452 27.175 0.486575 26.7352C0.356822 25.8443 0.513498 25.0343 0.956931 24.3044L4.05479 19.1209L0 16.7224H11.9535L18.571 27.3469L13.9485 24.562L9.76395 31.7413ZM19.5441 0.173518L20.3226 0.3023C21.5877 0.720842 22.5447 1.49354 23.1934 2.62038L25.4641 6.16189L23.1934 2.62038C22.5447 1.49354 21.5877 0.720842 20.3226 0.3023L19.5441 0.173518Z" fill="#829046"/>
</svg>
