<svg width="93" height="93" viewBox="0 0 93 93" fill="none" xmlns="http://www.w3.org/2000/svg">
<circle cx="46.5" cy="46.5" r="8.5" stroke="#452707" stroke-width="4"/>
<path d="M43.3011 23.2388C44.0712 19.8296 48.9288 19.8296 49.6989 23.2388C50.8067 28.1432 56.4349 30.4745 60.6862 27.7899C63.6414 25.9237 67.0763 29.3586 65.2101 32.3138C62.5255 36.5651 64.8568 42.1933 69.7612 43.3011C73.1704 44.0712 73.1704 48.9288 69.7612 49.6989C64.8568 50.8067 62.5255 56.4349 65.2101 60.6862C67.0763 63.6414 63.6414 67.0763 60.6862 65.2101C56.4349 62.5255 50.8067 64.8568 49.6989 69.7612C48.9288 73.1704 44.0712 73.1704 43.3011 69.7612C42.1933 64.8568 36.5651 62.5255 32.3138 65.2101C29.3586 67.0763 25.9237 63.6414 27.7899 60.6862C30.4745 56.4349 28.1432 50.8067 23.2388 49.6989C19.8296 48.9288 19.8296 44.0712 23.2388 43.3011C28.1432 42.1933 30.4745 36.5651 27.7899 32.3138C25.9237 29.3586 29.3586 25.9237 32.3138 27.7899C36.5651 30.4745 42.1933 28.1432 43.3011 23.2388Z" stroke="#452707" stroke-width="4"/>
</svg>
