<?xml version="1.0" encoding="UTF-8"?>
<svg id="Layer_2" data-name="Layer 2" xmlns="http://www.w3.org/2000/svg" viewBox="0 0 103.07 103.07">
  <defs>
    <style>
      .cls-1 {
        stroke: #76533b;
        stroke-linecap: round;
        stroke-linejoin: round;
        stroke-width: 3px;
      }

      .cls-1, .cls-2 {
        fill: none;
      }

      .cls-3 {
        fill: #d1bfc5;
      }

      .cls-3, .cls-4, .cls-5 {
        stroke-width: 0px;
      }

      .cls-4 {
        fill: #fdfeff;
      }

      .cls-5 {
        fill: #fef5f6;
      }

      .cls-2 {
        stroke: #fdfeff;
        stroke-miterlimit: 10;
        stroke-width: .5px;
      }
    </style>
  </defs>
  <g id="Layer_2-2" data-name="Layer 2">
    <g id="snowy">
      <path id="sky" class="cls-3" d="m91.57,101.57H11.5c-5.52,0-10-4.48-10-10V11.5c0-.67.07-4.21,2.93-7.07,1.81-1.81,4.31-2.93,7.07-2.93h80.08c5.52,0,10,4.48,10,10v80.08c0,5.52-4.48,10-10,10Z"/>
      <path id="hill_far" class="cls-5" d="m1.84,51.92c6.84-.56,14.67-.59,23.24.48,28.2,3.52,48.63,16.98,59.53,25.63l-1.11,16.24-81.66.64v-42.98Z"/>
      <path id="hill" class="cls-4" d="m2.33,93.26c.08,4.59,3.84,8.25,8.43,8.2,25.87-.28,55.81-.34,80.69-.67,5.57-.16,6.48-.7,9.07-4.3.05-13.11.27-28.6.32-41.7-13.69-.96-23.51,3.71-30.56,6.21-28.56,10.11-42.66,21.81-60.17,17.51-3.73-.92-6.41-2.85-8.12-3.98l.33,18.73Z"/>
      <path id="Cloud2" class="cls-4" d="m75.92,25.84s2.59-4.21,7.45-3.2c0,0,2.87.81,2.55,4.49,0,0,2.99-1.13,4.09.4s-.73,3.44-.73,3.44c0,0,4.98.16,4.45,4.13s-2.79,6.19-5.71,6.56-5.14-2.47-5.26-3.08c0,0-1.62,2.79-5.87,2.67s-4.82-2.67-4.82-2.67c0,0-3.32,1.38-5.59-.12s-2.35-2.55-2.43-3.89,2.35-3.56,4.37-3.4c0,0-2.06-1.9,1.05-4.29s6.43-1.05,6.43-1.05Z"/>
      <path id="Cloud1" class="cls-4" d="m19.48,32.78s-2.76,2.81-8.18.58c0,0-3.78-2.52-4.46-7.29s7.21-5.52,7.21-5.52c0,0-.14.83-1.1-2.62s3.87-6.35,3.87-6.35c0,0,11.18-5.56,15.41,5.68,0,0,2.2-.73,3.72.58s1.15,2.8,1.15,2.8c0,0,.58-.81,3.88-.65s5.93,1.63,5.61,4.4-2.2,4.04-5.87,4.56c0,0,.37,1.63-.89,2.94s-2.46,2.52-5.03,2.78c0,0-3.08-.08-4.82-1.47,0,0-5.07,5.43-10.49-.42Z"/>
      <g id="snow">
        <path id="snow_circle3" class="cls-2" d="m45,48.76c.25.35.01.86,0,.89-.27.55-1.08.92-1.52.59-.37-.27-.42-.99-.07-1.41.41-.5,1.29-.49,1.59-.07Z"/>
        <path id="snow_circle2" class="cls-2" d="m79.22,10.07c-.26-.16-.67-.22-.97,0-.04.03-.3.23-.3.52,0,.43.55.77,1.02.77.07,0,.48,0,.65-.27.18-.31-.05-.8-.4-1.02Z"/>
        <path id="snow_cirlce" class="cls-2" d="m21.79,6.15c.2.2.22.62,0,.92-.22.3-.61.38-.92.27-.32-.12-.58-.44-.54-.71.07-.49,1.09-.84,1.46-.48Z"/>
        <path id="snow_medium3" class="cls-4" d="m70.79,17c-.22.38.25,1.26.79,1.24.48-.02.91-.74.72-1.14-.22-.47-1.29-.49-1.52-.09Z"/>
        <path id="snow_medium2" class="cls-4" d="m70,8.83c.05-.33-.13-.74-.49-.82-.3-.07-.62.13-.72.37-.19.44.26,1.06.68,1.03.26-.02.49-.3.54-.58Z"/>
        <path id="snow_medium" class="cls-4" d="m40.49,6.24c-.15.47.59,1.22,1.06,1.08.42-.13.69-1,.32-1.38-.37-.38-1.24-.12-1.38.3Z"/>
        <path id="snow_speck2" class="cls-4" d="m28.87,40.83c-.22-.26-.71-.23-.84-.04-.2.28.28,1.04.58.99.24-.04.54-.62.26-.95Z"/>
        <circle id="snow_speck" class="cls-4" cx="53.94" cy="13.98" r=".34"/>
        <path id="snow_circle3-2" data-name="snow_circle3" class="cls-2" d="m80.54,54.02c.25.35.01.86,0,.89-.27.55-1.08.92-1.52.59-.37-.27-.42-.99-.07-1.41.41-.5,1.29-.49,1.59-.07Z"/>
        <path id="snow_medium3-2" data-name="snow_medium3" class="cls-4" d="m85.96,12.4c-.22.38.25,1.26.79,1.24.48-.02.91-.74.72-1.14-.22-.47-1.29-.49-1.52-.09Z"/>
        <path id="snow_medium2-2" data-name="snow_medium2" class="cls-4" d="m94.93,22.57c.05-.33-.13-.74-.49-.82-.3-.07-.62.13-.72.37-.19.44.26,1.06.68,1.03.26-.02.49-.3.54-.58Z"/>
        <path id="snow_medium-2" data-name="snow_medium" class="cls-4" d="m61.13,29.78c-.15.47.59,1.22,1.06,1.08.42-.13.69-1,.32-1.38-.37-.38-1.24-.12-1.38.3Z"/>
        <path id="snow_medium2-3" data-name="snow_medium2" class="cls-4" d="m51.42,38.74c.05-.33-.13-.74-.49-.82-.3-.07-.62.13-.72.37-.19.44.26,1.06.68,1.03.26-.02.49-.3.54-.58Z"/>
        <circle id="snow_speck-2" data-name="snow_speck" class="cls-4" cx="87.66" cy="50.92" r=".34"/>
        <path id="snow_medium2-4" data-name="snow_medium2" class="cls-4" d="m96.98,46.23c.05-.33-.13-.74-.49-.82-.3-.07-.62.13-.72.37-.19.44.26,1.06.68,1.03.26-.02.49-.3.54-.58Z"/>
        <g id="snow_cross2">
          <path class="cls-4" d="m62.68,44.57c-.22.01-.52-.36-.46-.73.08-.5.75-.68.93-.53.24.2-.11,1.24-.46,1.26Z"/>
          <path class="cls-4" d="m63.44,45.17c.05-.25.65-.35,1.03-.33.11,0,.68.03.73.23.05.24-.61.78-1.19.63-.3-.07-.6-.33-.56-.53Z"/>
          <path class="cls-4" d="m62.98,45.37c-.24-.05-.97,1.05-.56,1.76.09.15.3.41.46.36.41-.12.4-2.06.1-2.12Z"/>
          <path class="cls-4" d="m60.62,44.74c-.11.18.07.52.29.69.53.38,1.43-.15,1.41-.41-.02-.32-1.47-.64-1.7-.27Z"/>
        </g>
        <g id="snow_cross">
          <path id="snow_cross-2" data-name="snow_cross" class="cls-4" d="m56.22,20.5c-.07.22.48.84,1.07.7.34-.08.66-.4.6-.6-.11-.37-1.57-.41-1.67-.1Z"/>
          <path class="cls-4" d="m55.66,19.89c.15.13.39.09.54,0,.31-.19.38-.74.17-.9-.18-.14-.57-.03-.74.23-.12.19-.16.51.03.67Z"/>
          <path class="cls-4" d="m53.65,20.6c-.05.23.37.6.8.6.41,0,.83-.31.8-.54-.03-.28-.77-.5-1.31-.3-.1.04-.28.1-.3.23Z"/>
          <path class="cls-4" d="m55.96,20.83c-.2-.07-.61.36-.7.84-.08.43.09.95.3.97.23.03.53-.56.57-1.07,0-.03.05-.66-.17-.74Z"/>
        </g>
        <g id="snow_cross2-2" data-name="snow_cross2">
          <path class="cls-4" d="m19.42,40.4c-.22.01-.52-.36-.46-.73.08-.5.75-.68.93-.53.24.2-.11,1.24-.46,1.26Z"/>
          <path class="cls-4" d="m20.19,41c.05-.25.65-.35,1.03-.33.11,0,.68.03.73.23.05.24-.61.78-1.19.63-.3-.07-.6-.33-.56-.53Z"/>
          <path class="cls-4" d="m19.72,41.2c-.24-.05-.97,1.05-.56,1.76.09.15.3.41.46.36.41-.12.4-2.06.1-2.12Z"/>
          <path class="cls-4" d="m17.37,40.57c-.11.18.07.52.29.69.53.38,1.43-.15,1.41-.41-.02-.32-1.47-.64-1.7-.27Z"/>
        </g>
        <g id="snow_cross-3" data-name="snow_cross">
          <path id="snow_cross-4" data-name="snow_cross" class="cls-4" d="m97.44,26.42c-.07.22.48.84,1.07.7.34-.08.66-.4.6-.6-.11-.37-1.57-.41-1.67-.1Z"/>
          <path class="cls-4" d="m96.87,25.82c.15.13.39.09.54,0,.31-.19.38-.74.17-.9-.18-.14-.57-.03-.74.23-.12.19-.16.51.03.67Z"/>
          <path class="cls-4" d="m94.86,26.52c-.05.23.37.6.8.6.41,0,.83-.31.8-.54-.03-.28-.77-.5-1.31-.3-.1.04-.28.1-.3.23Z"/>
          <path class="cls-4" d="m97.17,26.75c-.2-.07-.61.36-.7.84-.08.43.09.95.3.97.23.03.53-.56.57-1.07,0-.03.05-.66-.17-.74Z"/>
        </g>
        <path id="snow_medium-3" data-name="snow_medium" class="cls-4" d="m33.85,48.15c-.15.47.59,1.22,1.06,1.08.42-.13.69-1,.32-1.38-.37-.38-1.24-.12-1.38.3Z"/>
        <path id="snow_medium-4" data-name="snow_medium" class="cls-4" d="m10.99,43.02c-.15.47.59,1.22,1.06,1.08.42-.13.69-1,.32-1.38-.37-.38-1.24-.12-1.38.3Z"/>
        <path id="snow_medium2-5" data-name="snow_medium2" class="cls-4" d="m73.61,50.49c.05-.33-.13-.74-.49-.82-.3-.07-.62.13-.72.37-.19.44.26,1.06.68,1.03.26-.02.49-.3.54-.58Z"/>
        <circle id="snow_speck-3" data-name="snow_speck" class="cls-4" cx="61.63" cy="56.22" r=".34"/>
        <circle id="snow_speck-4" data-name="snow_speck" class="cls-4" cx="9.66" cy="15.98" r=".34"/>
      </g>
      <path id="frame" class="cls-1" d="m91.57,101.57H11.5c-5.52,0-10-4.48-10-10V11.5c0-.67.07-4.21,2.93-7.07,1.81-1.81,4.31-2.93,7.07-2.93h80.08c5.52,0,10,4.48,10,10v80.08c0,5.52-4.48,10-10,10Z"/>
    </g>
  </g>
</svg>