<?xml version="1.0" encoding="UTF-8"?>
<svg id="Layer_2" data-name="Layer 2" xmlns="http://www.w3.org/2000/svg" viewBox="0 0 103.07 103.07">
  <defs>
    <style>
      .cls-1 {
        stroke: #76533b;
        stroke-linecap: round;
        stroke-linejoin: round;
        stroke-width: 3px;
      }

      .cls-1, .cls-2, .cls-3 {
        fill: none;
      }

      .cls-2, .cls-3 {
        stroke: #f6f4de;
        stroke-miterlimit: 10;
        stroke-width: 2px;
      }

      .cls-3 {
        opacity: .29;
      }

      .cls-4 {
        fill: #817f62;
      }

      .cls-4, .cls-5, .cls-6, .cls-7, .cls-8 {
        stroke-width: 0px;
      }

      .cls-5 {
        fill: #6e6e59;
      }

      .cls-6 {
        fill: #8f938b;
      }

      .cls-7 {
        fill: #84897f;
      }

      .cls-8 {
        fill: #747871;
      }
    </style>
  </defs>
  <g id="Layer_2-2" data-name="Layer 2">
    <g id="stormy">
      <path id="sky" class="cls-6" d="m91.57,101.57H11.5c-5.52,0-10-4.48-10-10V11.5c0-.67.07-4.21,2.93-7.07,1.81-1.81,4.31-2.93,7.07-2.93h80.08c5.52,0,10,4.48,10,10v80.08c0,5.52-4.48,10-10,10Z"/>
      <path id="hill_far" class="cls-5" d="m1.84,51.92c6.84-.56,14.67-.59,23.24.48,28.2,3.52,48.63,16.98,59.53,25.63l-1.11,16.24-81.66.64v-42.98Z"/>
      <path id="hill" class="cls-4" d="m2.33,93.26c.08,4.59,3.84,8.25,8.43,8.2,25.87-.28,55.81-.34,80.69-.67,5.57-.16,6.48-.7,9.07-4.3.05-13.11.27-28.6.32-41.7-13.69-.96-23.51,3.71-30.56,6.21-28.56,10.11-42.66,21.81-60.17,17.51-3.73-.92-6.41-2.85-8.12-3.98l.33,18.73Z"/>
      <path id="cloud_far" class="cls-7" d="m3.4,37.91s6.49-1.12,6.71-8.72c0,0,2.8.34,6.49-3.24,0,0,10.74,9.62,21.14,0,0,0,5.59,6.26,13.08,0,0,0,5.59,4.7,10.18-1.9,0,0,6.82,14.09,18.34,1.79,0,0,.89,5.59,5.59,4.14,0,0,.56,1.68,3.47.45,0,0,1.29,8.95,12.86,5.7l.23-24.75c.05-5.44-4.35-9.88-9.79-9.88H11.7C6.04,1.5,1.42,6.04,1.33,11.7l-.44,26.22h2.52Z"/>
      <g id="raindrops">
        <path id="rain_big" class="cls-8" d="m49.58,36.96c-.93-.28-3.74,5.42-3.33,5.69.4.26,2.39-2.92,3.52-5.5.07-.16-.17-.19-.19-.19Z"/>
        <path id="rain_mid" class="cls-8" d="m57.14,33.72s-1.07,1.01-1.35,2.85,2.33-2.7,1.35-2.85Z"/>
        <path id="rain_mid-2" data-name="rain_mid" class="cls-8" d="m42.76,39.06s.28-2.2,1.9-3.69-1.56,3.72-1.9,3.69Z"/>
        <path id="rain_small" class="cls-8" d="m55.92,29.27s-.83.8-.89,1.84,1.29-1.59.89-1.84Z"/>
        <path id="rain_mid-3" data-name="rain_mid" class="cls-8" d="m64.1,26.33s-1.2.43-1.93,2.64,1.13-.64,1.93-2.64Z"/>
        <path id="rain_thin" class="cls-8" d="m71.04,33.6s-.98,1.04-1.35,2.27.28.25,1.35-2.27Z"/>
        <path id="rain_thin-2" data-name="rain_thin" class="cls-8" d="m78.55,31.6h-.46s-2.3,4.05-2.51,5.12,2.58-4.08,2.97-5.12Z"/>
        <path id="rain_fat" class="cls-8" d="m85.69,24.61s-.83-.55-1.99,3.01,2.7-2.12,1.99-3.01Z"/>
        <path id="rain_big-2" data-name="rain_big" class="cls-8" d="m83.57,69.72c-.93-.28-3.74,5.42-3.33,5.69.4.26,2.39-2.92,3.52-5.5.07-.16-.17-.19-.19-.19Z"/>
        <path id="rain_mid-4" data-name="rain_mid" class="cls-8" d="m9.54,46.31s-1.07,1.01-1.35,2.85,2.33-2.7,1.35-2.85Z"/>
        <path id="rain_mid-5" data-name="rain_mid" class="cls-8" d="m69.13,23.87s.28-2.2,1.9-3.69-1.56,3.72-1.9,3.69Z"/>
        <path id="rain_small-2" data-name="rain_small" class="cls-8" d="m31.58,19.81s-.83.8-.89,1.84,1.29-1.59.89-1.84Z"/>
        <path id="rain_mid-6" data-name="rain_mid" class="cls-8" d="m64.1,56.62s-1.2.43-1.93,2.64,1.13-.64,1.93-2.64Z"/>
        <path id="rain_thin-3" data-name="rain_thin" class="cls-8" d="m67.2,64.91s-.98,1.04-1.35,2.27.28.25,1.35-2.27Z"/>
        <path id="rain_thin-4" data-name="rain_thin" class="cls-8" d="m14.67,64.88h-.65s-3.23,5.69-3.53,7.19,3.62-5.73,4.18-7.19Z"/>
        <path id="rain_fat-2" data-name="rain_fat" class="cls-8" d="m61.95,50.87s-.83-.55-1.99,3.01,2.7-2.12,1.99-3.01Z"/>
        <path id="rain_thin-5" data-name="rain_thin" class="cls-8" d="m26.27,36.42h-.46s-2.3,4.05-2.51,5.12,2.58-4.08,2.97-5.12Z"/>
        <path id="rain_small-3" data-name="rain_small" class="cls-8" d="m29.22,43.23s-.83.8-.89,1.84,1.29-1.59.89-1.84Z"/>
        <path id="rain_mid-7" data-name="rain_mid" class="cls-8" d="m36.53,39.06s-1.2.43-1.93,2.64,1.13-.64,1.93-2.64Z"/>
        <path id="rain_fat-3" data-name="rain_fat" class="cls-8" d="m40.44,18.78s-.83-.55-1.99,3.01,2.7-2.12,1.99-3.01Z"/>
        <path id="rain_thin-6" data-name="rain_thin" class="cls-8" d="m31.17,36.26s-.98,1.04-1.35,2.27.28.25,1.35-2.27Z"/>
        <path id="rain_thin-7" data-name="rain_thin" class="cls-8" d="m80.59,43.89s-.98,1.04-1.35,2.27.28.25,1.35-2.27Z"/>
        <path id="rain_thin-8" data-name="rain_thin" class="cls-8" d="m93.26,32.73h-.46s-2.3,4.05-2.51,5.12,2.58-4.08,2.97-5.12Z"/>
        <path id="rain_big-3" data-name="rain_big" class="cls-8" d="m75.36,43.24c-.93-.28-3.74,5.42-3.33,5.69.4.26,2.39-2.92,3.52-5.5.07-.16-.17-.19-.19-.19Z"/>
        <path id="rain_thin-9" data-name="rain_thin" class="cls-8" d="m19,41.64h-.46s-2.3,4.05-2.51,5.12,2.58-4.08,2.97-5.12Z"/>
        <path id="rain_thin-10" data-name="rain_thin" class="cls-8" d="m57,56.33h-.46s-2.3,4.05-2.51,5.12,2.58-4.08,2.97-5.12Z"/>
        <path id="rain_thin-11" data-name="rain_thin" class="cls-8" d="m84.97,52.94h-.46s-2.3,4.05-2.51,5.12,2.58-4.08,2.97-5.12Z"/>
        <path id="rain_thin-12" data-name="rain_thin" class="cls-8" d="m62.38,41.64h-.46s-2.3,4.05-2.51,5.12,2.58-4.08,2.97-5.12Z"/>
        <path id="rain_thin-13" data-name="rain_thin" class="cls-8" d="m86.51,38.41s-.98,1.04-1.35,2.27.28.25,1.35-2.27Z"/>
        <path id="rain_big-4" data-name="rain_big" class="cls-8" d="m10.85,34.43c-1.11-.33-4.45,6.44-3.96,6.77.47.31,2.84-3.47,4.18-6.54.08-.19-.2-.22-.23-.23Z"/>
        <path id="rain_big-5" data-name="rain_big" class="cls-8" d="m21.14,50.32c-1.26-.37-5.07,7.34-4.5,7.7.54.35,3.24-3.95,4.77-7.44.1-.22-.23-.25-.26-.26Z"/>
        <path id="rain_fat-4" data-name="rain_fat" class="cls-8" d="m25.98,16.68s-.83-.55-1.99,3.01,2.7-2.12,1.99-3.01Z"/>
        <path id="rain_thin-14" data-name="rain_thin" class="cls-8" d="m35.92,47.67h-.46s-2.3,4.05-2.51,5.12,2.58-4.08,2.97-5.12Z"/>
        <path id="rain_thin-15" data-name="rain_thin" class="cls-8" d="m47.71,45.32h-.46s-2.3,4.05-2.51,5.12,2.58-4.08,2.97-5.12Z"/>
        <path id="rain_mid-8" data-name="rain_mid" class="cls-8" d="m41.58,30.03s.28-2.2,1.9-3.69-1.56,3.72-1.9,3.69Z"/>
        <path id="rain_mid-9" data-name="rain_mid" class="cls-8" d="m48.61,28.66s.28-2.2,1.9-3.69-1.56,3.72-1.9,3.69Z"/>
        <path id="rain_mid-10" data-name="rain_mid" class="cls-8" d="m19.9,29.43s.28-2.2,1.9-3.69-1.56,3.72-1.9,3.69Z"/>
        <path id="rain_thin-16" data-name="rain_thin" class="cls-8" d="m25.5,31.33s-.98,1.04-1.35,2.27.28.25,1.35-2.27Z"/>
        <path id="rain_mid-11" data-name="rain_mid" class="cls-8" d="m17.07,21.23s-1.2.43-1.93,2.64,1.13-.64,1.93-2.64Z"/>
        <path id="rain_thin-17" data-name="rain_thin" class="cls-8" d="m95.96,63.04h-.65s-3.23,5.69-3.53,7.19,3.62-5.73,4.18-7.19Z"/>
        <path id="rain_thin-18" data-name="rain_thin" class="cls-8" d="m93.26,46.31h-.46s-2.3,4.05-2.51,5.12,2.58-4.08,2.97-5.12Z"/>
        <path id="rain_mid-12" data-name="rain_mid" class="cls-8" d="m98.06,36.28s-1.2.43-1.93,2.64,1.13-.64,1.93-2.64Z"/>
        <path id="rain_thin-19" data-name="rain_thin" class="cls-8" d="m74.5,53.53s-.98,1.04-1.35,2.27.28.25,1.35-2.27Z"/>
        <path id="rain_mid-13" data-name="rain_mid" class="cls-8" d="m18.56,32.41s-1.2.43-1.93,2.64,1.13-.64,1.93-2.64Z"/>
        <path id="rain_big-6" data-name="rain_big" class="cls-8" d="m36.96,64.21c-.93-.28-3.74,5.42-3.33,5.69.4.26,2.39-2.92,3.52-5.5.07-.16-.17-.19-.19-.19Z"/>
        <path id="rain_mid-14" data-name="rain_mid" class="cls-8" d="m44.52,60.97s-1.07,1.01-1.35,2.85,2.33-2.7,1.35-2.85Z"/>
        <path id="rain_small-4" data-name="rain_small" class="cls-8" d="m43.29,56.53s-.83.8-.89,1.84,1.29-1.59.89-1.84Z"/>
        <path id="rain_mid-15" data-name="rain_mid" class="cls-8" d="m51.48,53.58s-1.2.43-1.93,2.64,1.13-.64,1.93-2.64Z"/>
        <path id="rain_mid-16" data-name="rain_mid" class="cls-8" d="m23.9,66.31s-1.2.43-1.93,2.64,1.13-.64,1.93-2.64Z"/>
        <path id="rain_thin-20" data-name="rain_thin" class="cls-8" d="m49.76,68.89h-.46s-2.3,4.05-2.51,5.12,2.58-4.08,2.97-5.12Z"/>
        <path id="rain_thin-21" data-name="rain_thin" class="cls-8" d="m23.3,74.92h-.46s-2.3,4.05-2.51,5.12,2.58-4.08,2.97-5.12Z"/>
        <path id="rain_thin-22" data-name="rain_thin" class="cls-8" d="m35.08,72.57h-.46s-2.3,4.05-2.51,5.12,2.58-4.08,2.97-5.12Z"/>
        <path id="rain_mid-17" data-name="rain_mid" class="cls-8" d="m28.95,57.28s.28-2.2,1.9-3.69-1.56,3.72-1.9,3.69Z"/>
        <path id="rain_thin-23" data-name="rain_thin" class="cls-8" d="m71.29,66.62h-.46s-2.3,4.05-2.51,5.12,2.58-4.08,2.97-5.12Z"/>
        <path id="rain_thin-24" data-name="rain_thin" class="cls-8" d="m73.78,72.76s-.98,1.04-1.35,2.27.28.25,1.35-2.27Z"/>
        <path id="rain_thin-25" data-name="rain_thin" class="cls-8" d="m78.52,63.51s-.98,1.04-1.35,2.27.28.25,1.35-2.27Z"/>
      </g>
      <g id="lightning">
        <polyline id="lightning-2" data-name="lightning" class="cls-2" points="50.27 16.8 43.3 34.46 33.99 43.36 37.73 51.8 33.99 63.52 36.16 74.87"/>
        <polyline id="lightning_shadow" class="cls-3" points="51.26 17.5 44.28 35.15 34.97 44.06 38.72 52.49 34.97 64.22 36.98 74.71"/>
      </g>
      <path id="cloud" class="cls-8" d="m2.5,27.4s10.85-.34,16.1-11.07c0,0,8.05,3.47,13.31-2.24,0,0,3.02,4.03,8.95,2.24,0,0,.89,4.58,6.49,5.26s7.49-5.93,7.49-5.93c0,0,3.69,7.16,13.2.34,0,0,1.12,5.26,6.26,5.93s7.83-1.23,9.06-3.02c0,0,3.24,2.35,6.26.56,0,0,1.79,10.85,10.96,9.17V10.8c0-5.13-4.16-9.3-9.3-9.3H11.31C7,1.5,2.5,4.64,2.5,8.95v18.45Z"/>
      <path id="frame" class="cls-1" d="m91.57,101.57H11.5c-5.52,0-10-4.48-10-10V11.5c0-.67.07-4.21,2.93-7.07,1.81-1.81,4.31-2.93,7.07-2.93h80.08c5.52,0,10,4.48,10,10v80.08c0,5.52-4.48,10-10,10Z"/>
    </g>
  </g>
</svg>