<?xml version="1.0" encoding="UTF-8"?>
<svg id="Layer_2" data-name="Layer 2" xmlns="http://www.w3.org/2000/svg" viewBox="0 0 103.07 103.07">
  <defs>
    <style>
      .cls-1 {
        fill: none;
        stroke: #76533b;
        stroke-linecap: round;
        stroke-linejoin: round;
        stroke-width: 3px;
      }

      .cls-2 {
        fill: #c8d7cf;
      }

      .cls-2, .cls-3, .cls-4, .cls-5 {
        stroke-width: 0px;
      }

      .cls-3 {
        fill: #a5a057;
      }

      .cls-4 {
        fill: #999663;
      }

      .cls-5 {
        fill: #edcc75;
      }
    </style>
  </defs>
  <g id="Layer_2-2" data-name="Layer 2">
    <g id="sunny">
      <path id="sky" class="cls-2" d="m91.57,101.57H11.5c-5.52,0-10-4.48-10-10V11.5c0-.67.07-4.21,2.93-7.07,1.81-1.81,4.31-2.93,7.07-2.93h80.08c5.52,0,10,4.48,10,10v80.08c0,5.52-4.48,10-10,10Z"/>
      <path class="cls-4" d="m1.84,51.92c6.84-.56,14.67-.59,23.24.48,28.2,3.52,48.63,16.98,59.53,25.63l-1.11,16.24-81.66.64v-42.98Z"/>
      <path class="cls-3" d="m2.33,93.26c.08,4.59,3.84,8.25,8.43,8.2,25.87-.28,55.81-.34,80.69-.67,5.57-.16,6.48-.7,9.07-4.3.05-13.11.27-28.6.32-41.7-13.69-.96-23.51,3.71-30.56,6.21-28.56,10.11-42.66,21.81-60.17,17.51-3.73-.92-6.41-2.85-8.12-3.98l.33,18.73Z"/>
      <circle class="cls-5" cx="26" cy="18.5" r="7.55"/>
      <path id="frame" class="cls-1" d="m91.57,101.57H11.5c-5.52,0-10-4.48-10-10V11.5c0-.67.07-4.21,2.93-7.07,1.81-1.81,4.31-2.93,7.07-2.93h80.08c5.52,0,10,4.48,10,10v80.08c0,5.52-4.48,10-10,10Z"/>
    </g>
  </g>
</svg>